<?xml version="1.0" encoding="utf-8"?>
<!-- Generator: Adobe Illustrator 27.5.0, SVG Export Plug-In . SVG Version: 6.00 Build 0)  -->
<svg version="1.1" xmlns="http://www.w3.org/2000/svg" xmlns:xlink="http://www.w3.org/1999/xlink" x="0px" y="0px"
	 viewBox="0 0 1200 1200" style="enable-background:new 0 0 1200 1200;" xml:space="preserve">
<g id="Background">
	<g>
		<defs>
			<rect id="SVGID_1_" width="1200" height="1200"/>
		</defs>
		<clipPath id="SVGID_00000088092421843905614580000017985210594356323718_">
			<use xlink:href="#SVGID_1_"  style="overflow:visible;"/>
		</clipPath>
		
			<radialGradient id="SVGID_00000165937800811265770030000006814094621444259232_" cx="600" cy="599.9996" r="512.0266" gradientTransform="matrix(1 0 0 1.5 0 -299.9994)" gradientUnits="userSpaceOnUse">
			<stop  offset="0" style="stop-color:#180039"/>
			<stop  offset="1" style="stop-color:#001128"/>
		</radialGradient>
		
			<rect x="-2.5" y="-2.5" style="clip-path:url(#SVGID_00000088092421843905614580000017985210594356323718_);fill:url(#SVGID_00000165937800811265770030000006814094621444259232_);" width="1205" height="1205"/>
		<g style="clip-path:url(#SVGID_00000088092421843905614580000017985210594356323718_);">
			
				<radialGradient id="SVGID_00000134224231295607528870000017493687465939377083_" cx="417.0014" cy="1963.6843" r="458.486" gradientTransform="matrix(1.6888 0 0 0.4333 -105.232 382.723)" gradientUnits="userSpaceOnUse">
				<stop  offset="0.0025" style="stop-color:#A3009E"/>
				<stop  offset="1" style="stop-color:#222221;stop-opacity:0"/>
			</radialGradient>
			
				<ellipse style="fill:url(#SVGID_00000134224231295607528870000017493687465939377083_);" cx="599" cy="1233.587" rx="774.266" ry="198.669"/>
			
				<radialGradient id="SVGID_00000072981872509785549470000006248070745521509783_" cx="417.5936" cy="-2916.6001" r="331.0099" gradientTransform="matrix(1.6888 0 0 0.3673 -105.232 1050.8295)" gradientUnits="userSpaceOnUse">
				<stop  offset="0.0025" style="stop-color:#A3009E"/>
				<stop  offset="1" style="stop-color:#222221;stop-opacity:0"/>
			</radialGradient>
			
				<ellipse style="fill:url(#SVGID_00000072981872509785549470000006248070745521509783_);" cx="600" cy="-20.438" rx="559" ry="121.582"/>
			
				<radialGradient id="SVGID_00000070798023793302720810000011806962202720060064_" cx="202.229" cy="-1232.6459" r="331.012" gradientTransform="matrix(0 -1.5236 0.3413 0 408.6786 908.1161)" gradientUnits="userSpaceOnUse">
				<stop  offset="0.0025" style="stop-color:#A3009E"/>
				<stop  offset="1" style="stop-color:#222221;stop-opacity:0"/>
			</radialGradient>
			
				<ellipse style="fill:url(#SVGID_00000070798023793302720810000011806962202720060064_);" cx="-12.023" cy="600" rx="112.977" ry="504.32"/>
			
				<radialGradient id="SVGID_00000060748465617360992030000007777957073197667716_" cx="202.229" cy="2382.9417" r="331.012" gradientTransform="matrix(0 -1.5236 0.3413 0 408.6786 908.1161)" gradientUnits="userSpaceOnUse">
				<stop  offset="0.0025" style="stop-color:#A3009E"/>
				<stop  offset="1" style="stop-color:#222221;stop-opacity:0"/>
			</radialGradient>
			
				<ellipse style="fill:url(#SVGID_00000060748465617360992030000007777957073197667716_);" cx="1221.977" cy="600" rx="112.977" ry="504.32"/>
		</g>
	</g>
</g>
<g id="Graphic_Elements">
	<g>
		<defs>
			<rect id="SVGID_00000072992026930287312480000003224913223600063919_" width="100" height="100"/>
		</defs>
		<clipPath id="SVGID_00000132786892876262948410000002056192860673456826_">
			<use xlink:href="#SVGID_00000072992026930287312480000003224913223600063919_"  style="overflow:visible;"/>
		</clipPath>
		<g style="clip-path:url(#SVGID_00000132786892876262948410000002056192860673456826_);">
			<g>
				<g>
					<path style="fill:#08FFD5;" d="M982.103,1299.746c-0.646,0-1.292-0.002-1.941-0.005c-45.044-0.224-97.279-1.184-147.185-9.8
						c-16.736-2.889-36.261-6.847-54.177-14.302c-19.13-7.96-33.628-18.728-44.325-32.917
						c-26.259-34.833-63.561-34.555-96.585-29.689c-21.693,3.196-43.343,8.629-64.28,13.883
						c-23.278,5.841-47.35,11.882-71.627,14.891c-31.261,3.875-64.08,3.077-95.818,2.304c-12.756-0.311-25.946-0.632-38.689-0.632
						H219.162v-2h148.314c12.768,0,25.97,0.321,38.738,0.633c31.666,0.771,64.41,1.567,95.523-2.289
						c24.156-2.994,48.166-9.02,71.386-14.847c20.985-5.266,42.684-10.71,64.476-13.921c33.607-4.949,71.585-5.203,98.474,30.465
						c22.595,29.973,60.09,40.038,97.244,46.451c49.755,8.589,101.893,9.547,146.855,9.77c0.643,0.003,1.29,0.005,1.931,0.005
						c44.375,0,82.504-7.663,123.373-24.766c6.779-2.837,13.627-5.785,20.249-8.637c39.424-16.976,80.188-34.529,125.222-36.21
						l0.074,1.998c-44.659,1.668-83.443,18.368-124.505,36.049c-6.627,2.854-13.479,5.804-20.269,8.646
						C1065.125,1292.034,1026.752,1299.746,982.103,1299.746z"/>
				</g>
				<g>
					<path style="fill:#13F3D7;" d="M962.014,1268.116c-33.875,0.001-69.517-2.609-107.965-7.876l-3.236-0.442
						c-33.994-4.642-76.301-10.419-105.943-30.695c-5.637-3.855-10.264-8.685-14.738-13.355c-5.996-6.258-11.66-12.169-19.63-16.089
						c-12.352-6.075-27.08-8.296-46.354-6.988c-30.173,2.044-59.971,10.931-88.788,19.525c-12.461,3.717-25.346,7.561-38.024,10.773
						c-36.305,9.197-72.035,10.847-109.863,12.593c-5.096,0.235-10.201,0.471-15.316,0.726l-143.811,7.191l-0.1-1.998l143.811-7.19
						c5.117-0.256,10.225-0.491,15.323-0.727c37.724-1.741,73.355-3.386,109.464-12.534c12.637-3.201,25.502-7.038,37.943-10.749
						c28.922-8.626,58.828-17.546,89.225-19.605c19.641-1.326,34.691,0.954,47.371,7.189c8.287,4.076,14.339,10.392,20.19,16.5
						c4.404,4.597,8.959,9.351,14.424,13.089c29.252,20.009,69.54,25.51,105.085,30.363l3.237,0.442
						c53.058,7.269,100.755,9.466,145.821,6.714c37.85-2.311,71.822-13.057,113.595-35.933c4.548-2.49,9.072-5.004,13.587-7.512
						c38.764-21.536,75.377-41.878,120.114-45.221l0.148,1.994c-44.298,3.311-80.726,23.548-119.292,44.975
						c-4.518,2.51-9.046,5.025-13.597,7.518c-42.048,23.027-76.271,33.846-114.435,36.175
						C987.736,1267.732,975.003,1268.116,962.014,1268.116z"/>
				</g>
				<g>
					<path style="fill:#1EE7D9;" d="M317.535,1243.472l-0.209-1.988l134.453-14.153c40.88-4.304,80.609-13.382,125.031-28.57
						c5.388-1.842,10.756-3.765,16.439-5.8c29.899-10.707,60.809-21.778,91.647-20.021c17.553,1.001,31.302,9.756,44.597,18.223
						c9.232,5.879,18.778,11.958,29.682,15.589c38.343,12.771,79.139,18.713,121.052,24.154
						c48.687,6.322,89.494,9.678,130.398,5.508c46.467-4.736,82.972-31.894,118.274-58.156
						c33.222-24.714,67.575-50.269,110.305-57.377l0.328,1.973c-42.252,7.028-76.408,32.437-109.438,57.01
						c-35.521,26.424-72.251,53.748-119.266,58.541c-41.1,4.189-82.035,0.826-130.859-5.514
						c-42.014-5.456-82.914-11.415-121.427-24.24c-11.137-3.709-20.789-9.856-30.123-15.8
						c-13.682-8.713-26.604-16.942-43.636-17.914c-30.42-1.725-61.148,9.268-90.86,19.907c-5.69,2.038-11.064,3.963-16.466,5.809
						c-44.568,15.238-84.436,24.347-125.469,28.666L317.535,1243.472z"/>
				</g>
				<g>
					<path style="fill:#29DCDB;" d="M366.729,1243.465l-0.329-1.973c13.27-2.212,26.835-4.296,39.954-6.311
						c27.811-4.272,56.571-8.689,84.405-14.61c32.787-6.974,64.388-20.108,94.949-32.811c8.479-3.524,17.247-7.168,25.885-10.615
						c2.066-0.825,4.174-1.677,6.317-2.543c24.982-10.099,56.072-22.667,83.39-15.773c6.216,1.568,11.639,4.626,16.883,7.582
						c3.983,2.246,8.102,4.567,12.513,6.195c13.186,4.868,27.4,7.805,41.146,10.645c1.805,0.373,3.604,0.745,5.397,1.12
						c42.452,8.881,85.758,16.399,128.713,22.346l6.543,0.911c37.116,5.189,79.185,11.068,116.376,1.151
						c42.073-11.221,71.978-42.344,100.897-72.441c28.564-29.728,58.102-60.467,99.414-72.238l0.549,1.924
						c-40.794,11.623-70.141,42.164-98.521,71.7c-29.11,30.296-59.212,61.623-101.824,72.987
						c-37.585,10.023-79.865,4.113-117.169-1.103l-6.539-0.911c-43.001-5.952-86.352-13.479-128.85-22.369
						c-1.79-0.374-3.589-0.746-5.392-1.118c-13.818-2.855-28.106-5.807-41.435-10.727c-4.56-1.684-8.75-4.046-12.802-6.33
						c-5.13-2.892-10.434-5.882-16.391-7.385c-26.683-6.732-57.438,5.7-82.15,15.688c-2.146,0.868-4.256,1.721-6.325,2.547
						c-8.625,3.441-17.386,7.083-25.859,10.604c-30.645,12.737-62.333,25.908-95.301,32.921
						c-27.89,5.932-56.678,10.354-84.517,14.63C393.545,1239.173,379.987,1241.255,366.729,1243.465z"/>
				</g>
				<g>
					<path style="fill:#34D0DD;" d="M415.928,1243.452l-0.458-1.947c5.242-1.233,10.482-2.446,15.715-3.658
						c35.546-8.231,72.302-16.743,106.823-31.267c17.954-7.554,35.726-16.322,52.913-24.803
						c17.886-8.825,36.381-17.951,55.126-25.731c23.282-9.663,42.064-13.826,69.178-6.508c17.947,4.846,37.159,7.396,55.739,9.862
						c9.818,1.304,19.972,2.652,29.732,4.317c14.352,2.448,28.924,5.065,43.017,7.597c27.422,4.926,55.778,10.018,83.804,14.101
						l2.372,0.346c37.954,5.538,80.973,11.813,116.84-6.929c35.13-18.356,58.488-51.161,81.077-82.885
						c24.972-35.069,50.792-71.333,92.511-87.751l0.732,1.861c-41.166,16.2-66.812,52.218-91.613,87.05
						c-22.727,31.916-46.226,64.919-81.781,83.498c-36.44,19.042-79.8,12.716-118.055,7.134l-2.372-0.346
						c-28.058-4.086-56.43-9.182-83.869-14.11c-14.088-2.53-28.655-5.147-42.998-7.595c-9.725-1.658-19.859-3.004-29.659-4.305
						c-18.645-2.476-37.923-5.035-55.998-9.914c-26.563-7.172-45.006-3.074-67.889,6.424c-18.685,7.755-37.151,16.866-55.008,25.677
						c-17.214,8.494-35.013,17.276-53.023,24.854c-34.679,14.59-71.52,23.121-107.147,31.371
						C426.405,1241.006,421.168,1242.219,415.928,1243.452z"/>
				</g>
				<g>
					<path style="fill:#3FC4DF;" d="M465.132,1243.432l-0.597-1.908c37.739-11.794,75.377-28.415,118.449-52.307
						c8.884-4.929,17.872-10.277,26.564-15.449c19.773-11.767,40.22-23.934,61.675-32.558c15.604-6.274,30.328-5.995,45.915-5.707
						c2.741,0.052,5.521,0.104,8.348,0.121c33.949,0.214,67.336,5.24,104.332,11.29c14.478,2.368,29.167,5.039,43.374,7.621
						c28.184,5.124,57.327,10.422,86.233,13.617c54.164,5.988,79.375-3.969,100.554-20.763
						c29.195-23.153,48.399-56.404,66.971-88.56l3.394-5.869c1.566-2.704,3.131-5.428,4.701-8.161
						c20.44-35.585,41.576-72.38,80.508-89.414l0.801,1.832c-38.326,16.769-59.296,53.274-79.574,88.578
						c-1.571,2.735-3.137,5.461-4.705,8.167l-3.392,5.867c-18.666,32.318-37.966,65.736-67.461,89.126
						c-29.817,23.646-62.346,25.568-102.017,21.185c-28.975-3.203-58.153-8.508-86.37-13.638c-14.198-2.581-28.88-5.25-43.339-7.614
						c-36.912-6.037-70.218-11.052-104.021-11.265c-2.837-0.017-5.624-0.07-8.374-0.121c-15.378-0.289-29.904-0.559-45.131,5.563
						c-21.311,8.566-41.69,20.693-61.397,32.421c-8.705,5.18-17.707,10.536-26.618,15.479
						C540.761,1214.926,503.004,1231.598,465.132,1243.432z"/>
				</g>
				<g>
					<path style="fill:#49B8E1;" d="M516.67,1239.542l-0.928-1.772c35.625-18.642,73.25-41.081,115.022-68.601
						c4.379-2.886,8.736-5.93,13.35-9.153c15.598-10.897,31.726-22.166,49.232-27.473c54.216-16.438,111.975-7.228,167.832,1.681
						l2.743,0.438c9.489,1.512,19.17,3.194,28.531,4.821c31.159,5.415,63.379,11.015,95.257,11.558
						c34.914,0.622,62.53-12.298,86.924-40.576c21.519-24.945,36.471-55.896,50.931-85.826
						c21.788-45.099,44.317-91.732,89.738-118.452l1.014,1.725c-44.898,26.411-67.293,72.768-88.951,117.598
						c-14.516,30.048-29.526,61.118-51.218,86.263c-24.811,28.761-52.926,41.915-88.471,41.27
						c-32.034-0.546-64.332-6.159-95.566-11.587c-9.354-1.626-19.028-3.308-28.503-4.817l-2.744-0.438
						c-55.633-8.87-113.16-18.042-166.937-1.741c-17.202,5.215-33.197,16.391-48.667,27.198c-4.624,3.231-8.993,6.283-13.396,9.184
						C590.036,1198.396,552.355,1220.87,516.67,1239.542z"/>
				</g>
				<g>
					<path style="fill:#54ADE3;" d="M573.093,1226.943l-1.087-1.68c19.377-12.546,38.565-26.334,57.123-39.667
						c26.634-19.138,54.175-38.926,82.731-55.374c22.045-12.697,48.094-14.121,70.78-14.459c36.68-0.536,73.701,4.438,109.499,9.257
						c3.247,0.438,6.492,0.874,9.735,1.307c4.926,0.657,9.909,1.363,14.936,2.076c32.332,4.583,65.766,9.322,97.162,3.115
						c26.433-5.225,50.454-25.071,73.438-60.673c16.394-25.396,27.942-53.909,39.11-81.483
						c19.861-49.039,40.399-99.747,88.726-132.284l1.117,1.658c-47.819,32.196-67.332,80.372-87.989,131.377
						c-11.203,27.66-22.787,56.263-39.284,81.816c-23.292,36.082-47.736,56.216-74.729,61.552
						c-31.73,6.271-65.333,1.509-97.832-3.099c-5.021-0.711-9.999-1.417-14.919-2.073c-3.244-0.433-6.49-0.869-9.738-1.307
						c-35.727-4.81-72.656-9.783-109.203-9.239c-22.435,0.334-48.182,1.733-69.811,14.191
						c-28.469,16.398-55.969,36.157-82.563,55.266C611.719,1200.568,592.51,1214.37,573.093,1226.943z"/>
				</g>
				<g>
					<path style="fill:#5FA1E5;" d="M629.474,1214.299l-1.152-1.635c24.778-17.482,48.688-36.295,70.835-54.02
						c4.442-3.555,8.597-7.474,12.613-11.264c8.073-7.615,16.42-15.489,27.258-20.468c47.578-21.856,103.77-16.255,158.112-10.84
						c15.621,1.558,30.375,3.028,44.723,3.82l0.53,0.029c31.887,1.76,68.031,3.756,95.272-14.453
						c33.001-22.057,47.355-55.808,57.045-85.915c2.615-8.124,5.187-16.345,7.673-24.295
						c22.85-73.057,44.432-142.062,112.813-187.37l1.105,1.667c-67.789,44.917-89.269,113.592-112.01,186.3
						c-2.487,7.954-5.06,16.179-7.677,24.312c-9.796,30.435-24.327,64.566-57.838,86.964
						c-27.796,18.581-64.293,16.565-96.494,14.787l-0.529-0.029c-14.393-0.794-29.168-2.267-44.811-3.826
						c-54.077-5.39-109.993-10.963-157.08,10.667c-10.538,4.841-18.397,12.256-26.719,20.105c-4.047,3.817-8.23,7.765-12.736,11.37
						C678.234,1177.95,654.296,1196.785,629.474,1214.299z"/>
				</g>
				<g>
					<path style="fill:#6A95E7;" d="M680.563,1210.828l-1.145-1.641c2.373-1.654,4.822-3.316,7.307-5.003
						c13.861-9.406,28.193-19.132,36.858-32.294c13.697-20.805,28.789-33.409,50.463-42.147
						c41.587-16.764,86.622-16.072,130.174-15.403c25.525,0.391,51.918,0.797,77.201-2.346c37.192-4.624,63.297-19.109,77.59-43.057
						c14.889-24.946,20.216-55.348,25.368-84.749c1.354-7.726,2.753-15.715,4.289-23.298c7.534-37.189,17.425-80.014,39.556-117.597
						c22.739-38.617,56.696-64.428,86.914-84.583l1.109,1.664c-30.029,20.029-63.766,45.665-86.301,83.935
						c-21.973,37.315-31.816,79.947-39.317,116.977c-1.531,7.558-2.866,15.179-4.28,23.247
						c-5.183,29.579-10.543,60.165-25.621,85.429c-14.624,24.503-41.225,39.313-79.06,44.016
						c-25.422,3.16-51.887,2.751-77.478,2.361c-43.352-0.668-88.185-1.354-129.396,15.259
						c-21.552,8.688-35.904,20.681-49.541,41.392c-8.883,13.494-23.383,23.334-37.405,32.85
						C685.371,1207.521,682.929,1209.178,680.563,1210.828z"/>
				</g>
				<g>
					<path style="fill:#7589E9;" d="M721.031,1225.791l-0.922-1.775c11.21-5.828,17.031-15.846,23.193-26.452
						c3.458-5.95,7.033-12.104,11.696-17.674c17.196-20.543,41.938-36.505,71.55-46.161c30.15-9.832,62.222-12.87,93.237-15.809
						l1.096-0.104c3.561-0.338,7.158-0.657,10.781-0.978c29.444-2.611,59.891-5.312,85.786-18.879
						c31.81-16.665,40.696-45.344,45.562-73.854c3.412-19.998,5.37-40.546,7.265-60.417c2.048-21.48,4.165-43.692,8.126-65.325
						c8.584-46.889,23.97-83.768,47.036-112.747c18.771-23.583,43.044-41.417,66.518-58.664c7.636-5.609,15.53-11.41,23.128-17.328
						l1.229,1.578c-7.619,5.935-15.525,11.744-23.172,17.362c-23.368,17.169-47.532,34.923-66.138,58.297
						c-22.856,28.714-38.11,65.305-46.634,111.861c-3.944,21.549-6.058,43.718-8.102,65.156c-1.897,19.907-3.86,40.492-7.285,60.562
						c-4.951,29.017-14.024,58.221-46.604,75.289c-26.248,13.753-56.898,16.471-86.537,19.1c-3.619,0.321-7.213,0.64-10.768,0.977
						l-1.097,0.104c-30.907,2.928-62.866,5.956-92.807,15.72c-29.254,9.539-53.68,25.287-70.636,45.542
						c-4.553,5.438-8.085,11.518-11.5,17.396C738.72,1209.432,732.757,1219.694,721.031,1225.791z"/>
				</g>
				<g>
					<path style="fill:#807EEB;" d="M748.396,1257.458l-1.458-1.369c8.949-9.53,16.745-20.275,24.283-30.667
						c8.729-12.033,17.756-24.476,28.688-35.222c21.037-20.681,47.336-36.517,78.167-47.069
						c14.558-4.982,31.503-8.446,49.442-12.113c44.594-9.115,95.137-19.447,117.242-57.421
						c14.706-25.261,14.604-59.57,14.515-89.842c-0.016-5.067-0.029-9.854,0.023-14.544l0.083-7.669
						c0.422-40.13,0.858-81.626,9.733-121.548c8.985-40.419,27.21-74.667,54.167-101.79c15.548-15.643,33.375-29.228,50.615-42.366
						c14.166-10.794,28.814-21.956,42.106-34.193l1.355,1.472c-13.361,12.3-28.047,23.49-42.249,34.313
						c-17.188,13.097-34.959,26.639-50.41,42.186c-26.686,26.85-44.73,60.769-53.632,100.813
						c-8.83,39.718-9.266,81.108-9.687,121.136l-0.083,7.671c-0.053,4.674-0.039,9.454-0.023,14.515
						c0.091,30.525,0.193,65.124-14.786,90.854c-22.556,38.748-73.565,49.175-118.57,58.375
						c-17.875,3.653-34.759,7.105-49.194,12.046c-30.547,10.454-56.592,26.134-77.413,46.603
						c-10.812,10.63-19.789,23.004-28.471,34.97C765.266,1237.038,757.433,1247.835,748.396,1257.458z"/>
				</g>
				<g>
					<path style="fill:#8B72ED;" d="M788.744,1278.627l-1.519-1.299c6.752-7.9,13.381-16.156,19.79-24.14
						c14.898-18.558,30.305-37.747,48.463-53.954c20.706-18.481,45.949-33.654,79.442-47.753c3.053-1.285,6.11-2.561,9.165-3.835
						c55.755-23.264,108.418-45.236,113.477-112.895c2.334-31.209,0.212-63.303-1.84-94.34
						c-3.489-52.789-7.098-107.374,11.072-159.399c19.38-55.49,66.706-91.903,112.475-127.117
						c14.439-11.11,29.37-22.598,42.88-34.341l1.313,1.51c-13.555,11.782-28.51,23.289-42.973,34.416
						c-45.536,35.036-92.623,71.264-111.806,126.191c-18.036,51.64-14.441,106.019-10.965,158.607
						c2.057,31.107,4.183,63.273,1.838,94.621c-2.313,30.943-14.965,55.332-38.675,74.559
						c-21.113,17.121-49.029,28.769-76.027,40.033c-3.052,1.273-6.107,2.549-9.159,3.833c-33.283,14.01-58.35,29.072-78.886,47.401
						c-18.035,16.097-33.388,35.22-48.235,53.714C802.155,1262.436,795.518,1270.704,788.744,1278.627z"/>
				</g>
				<g>
					<path style="fill:#9666EF;" d="M843.538,1291.138l-1.547-1.268c4.617-5.637,9.259-11.423,13.747-17.019
						c18.05-22.502,36.713-45.769,58.683-65.405c18.128-16.205,38.676-29.494,58.547-42.346c3.765-2.435,7.533-4.872,11.292-7.332
						c27.891-18.25,47.572-37.633,63.816-62.847c21.401-33.221,17.706-73.418,14.445-108.883
						c-1.392-15.141-3.281-30.42-5.283-46.598c-8.666-70.065-17.628-142.516,13.963-204.865
						c15.712-31.011,42.3-53.995,68.012-76.223l2.644-2.286c12.869-11.135,26.313-22.013,39.313-32.532
						c16.752-13.554,34.074-27.57,50.326-42.268l1.342,1.483c-16.293,14.735-33.637,28.768-50.41,42.339
						c-12.988,10.509-26.418,21.375-39.263,32.49l-2.644,2.286c-25.566,22.101-52.002,44.954-67.537,75.614
						c-31.314,61.805-22.391,133.948-13.761,203.716c2.003,16.193,3.895,31.488,5.29,46.659c3.29,35.787,7.02,76.35-14.756,110.15
						c-16.404,25.461-36.267,45.025-64.402,63.437c-3.763,2.462-7.534,4.901-11.302,7.338
						c-19.807,12.809-40.288,26.056-58.301,42.156c-21.845,19.527-40.456,42.728-58.454,65.166
						C852.807,1279.703,848.162,1285.494,843.538,1291.138z"/>
				</g>
				<g>
					<path style="fill:#A15AF1;" d="M905.16,1297.219l-1.613-1.182l4.979-6.814c18.533-25.387,37.698-51.638,59.787-74.94
						c6.773-7.147,13.979-14.127,20.947-20.877c12.909-12.504,26.257-25.435,37.351-39.905c24.993-32.6,40.636-61.807,46.495-86.812
						c8.314-35.481,1.928-74.315-4.249-111.871c-1.213-7.374-2.358-14.34-3.396-21.297c-0.661-4.435-1.345-8.93-2.035-13.477
						c-5.634-37.057-12.019-79.057-10.583-118.936c1.649-45.833,13.382-81.979,35.867-110.503
						c24.821-31.488,55.35-58.049,84.872-83.736c22.956-19.973,46.692-40.625,67.552-63.433l1.477,1.35
						c-20.937,22.893-44.718,43.583-67.715,63.592c-29.454,25.626-59.91,52.125-84.615,83.466
						c-22.213,28.179-33.805,63.943-35.439,109.337c-1.429,39.691,4.941,81.594,10.562,118.563
						c0.692,4.549,1.376,9.046,2.037,13.482c1.035,6.942,2.179,13.9,3.391,21.267c6.208,37.75,12.628,76.784,4.223,112.653
						c-5.924,25.282-21.688,54.745-46.854,87.571c-11.184,14.588-24.586,27.57-37.547,40.125
						c-6.953,6.735-14.143,13.7-20.888,20.815c-22,23.211-41.127,49.409-59.623,74.745L905.16,1297.219z"/>
				</g>
				<g>
					<path style="fill:#AC4FF3;" d="M965.972,1299.098l-1.754-0.961c12.244-22.353,26.142-44.328,39.581-65.58
						c19.755-31.238,40.182-63.54,55.698-97.587c17.276-37.905,31.519-72.352,30.786-110.076
						c-0.67-34.532-6.761-69.381-12.652-103.082c-2.28-13.046-4.639-26.536-6.639-39.773c-6.42-42.494-12.129-87.606-5.448-130.919
						c3.365-21.816,11.195-49.805,43.749-91.986c18.318-23.737,40.033-45.252,61.032-66.06
						c27.938-27.682,56.826-56.307,77.852-90.36l1.701,1.051c-21.149,34.256-50.124,62.965-78.145,90.729
						c-20.953,20.762-42.619,42.23-60.856,65.861c-32.277,41.822-40.029,69.505-43.356,91.069
						c-6.638,43.035-0.947,87.975,5.45,130.315c1.996,13.215,4.352,26.693,6.631,39.728c5.903,33.776,12.009,68.702,12.682,103.388
						c0.74,38.145-13.586,72.813-30.966,110.945c-15.573,34.17-36.038,66.531-55.828,97.826
						C992.066,1254.852,978.186,1276.802,965.972,1299.098z"/>
				</g>
				<g>
					<path style="fill:#B643F5;" d="M1018.656,1298.673l-1.9-0.625c9.506-28.891,20.879-57.489,31.877-85.146
						c14.341-36.063,29.17-73.355,39.984-111.625c18.74-66.325,17.765-96.181,15.159-121.076
						c-2.699-25.793-7.096-51.806-11.347-76.962c-3.775-22.341-7.68-45.441-10.388-68.334c-4.706-39.792-7.429-82.072,4.412-121.657
						c9.149-30.586,28.089-59.119,47.193-85.396c12.098-16.64,25.307-32.561,38.082-47.956
						c32.103-38.689,62.425-75.232,78.272-123.878l1.902,0.619c-15.967,49.009-46.407,85.695-78.636,124.536
						c-12.755,15.372-25.944,31.267-38.004,47.855c-18.999,26.134-37.83,54.495-46.895,84.794
						c-11.737,39.236-9.022,81.27-4.342,120.849c2.702,22.843,6.602,45.919,10.373,68.235c4.257,25.186,8.658,51.231,11.363,77.086
						c2.112,20.179,1.617,40.359-1.515,61.694c-3.127,21.304-8.685,42.354-13.709,60.134c-10.841,38.37-25.689,75.71-40.05,111.82
						C1039.504,1241.269,1028.143,1269.84,1018.656,1298.673z"/>
				</g>
				<g>
					<path style="fill:#C137F7;" d="M1066.15,1289.254l-1.945-0.467c21.044-87.64,36.623-160.451,49.03-229.142
						c8.504-47.079,9.961-84.288,4.873-124.419c-2.011-15.858-4.438-31.945-6.786-47.504c-4.611-30.554-9.38-62.148-11.226-93.567
						c-2.62-44.572,2.073-79.972,14.771-111.405c11.108-27.501,25.262-54.596,42.066-80.533c6.366-9.827,13.125-19.628,19.66-29.106
						c10.86-15.75,22.09-32.036,31.819-48.874c20.261-35.062,29.918-72.39,40.143-111.909l1.396-5.387l1.936,0.502l-1.395,5.386
						c-10.26,39.655-19.95,77.111-40.347,112.409c-9.77,16.907-21.022,33.227-31.905,49.008
						c-6.527,9.467-13.277,19.255-19.629,29.059c-16.735,25.83-30.829,52.811-41.891,80.194
						c-12.582,31.148-17.23,66.273-14.629,110.539c1.841,31.327,6.603,62.877,11.207,93.387c2.35,15.569,4.779,31.669,6.793,47.55
						c5.115,40.345,3.652,77.735-4.889,125.026C1102.79,1128.729,1087.202,1201.576,1066.15,1289.254z"/>
				</g>
				<g>
					<path style="fill:#CC2BF9;" d="M1112.184,1271.797l-1.978-0.299c7.389-48.832,11.337-98.759,15.156-147.041
						c2.719-34.378,5.53-69.927,9.562-104.825c5.258-45.509,5.55-84.361,0.947-125.976c-0.939-8.499-1.96-17.148-2.946-25.513
						c-4.16-35.264-8.462-71.729-8.042-107.852c0.827-70.919,30.592-134.932,56.43-182.776l1.769-3.273
						c15.423-28.538,31.371-58.048,40.998-89.691c9.887-32.491,15.8-67.43,21.519-101.218c1.418-8.379,2.885-17.043,4.377-25.45
						l1.969,0.35c-1.491,8.399-2.957,17.06-4.374,25.435c-5.729,33.85-11.653,68.853-21.576,101.466
						c-9.687,31.836-25.683,61.435-41.152,90.06l-1.769,3.273c-48.981,90.697-55.758,144.825-56.189,181.849
						c-0.419,35.994,3.875,72.394,8.027,107.594c0.987,8.368,2.009,17.021,2.949,25.526c4.619,41.771,4.326,80.762-0.949,126.426
						c-4.027,34.862-6.837,70.392-9.555,104.753C1123.534,1172.932,1119.583,1222.895,1112.184,1271.797z"/>
				</g>
				<g>
					<path style="fill:#D720FB;" d="M1157.799,1252.092l-1.994-0.141c3.099-43.758,1.723-88.355,0.392-131.484
						c-1.433-46.436-2.914-94.452,1.184-141.556c3.564-40.973,3.765-80.573,0.629-124.624l-0.503-7.018
						c-2.697-37.581-5.485-76.44-2.76-114.646c4.512-63.255,26.518-118.442,49.816-176.87l3.275-8.219
						c25.3-63.574,32.1-134.527,38.676-203.144c1.122-11.706,2.281-23.811,3.51-35.569l1.988,0.208
						c-1.227,11.749-2.386,23.85-3.508,35.552c-6.589,68.756-13.402,139.853-38.809,203.692l-3.275,8.221
						c-23.239,58.279-45.189,113.326-49.68,176.271c-2.715,38.063,0.068,76.85,2.761,114.359l0.502,7.02
						c3.145,44.159,2.943,83.86-0.631,124.94c-4.088,46.986-2.607,94.942-1.177,141.319
						C1159.527,1163.584,1160.905,1208.232,1157.799,1252.092z"/>
				</g>
				<g>
					<path style="fill:#E214FD;" d="M1204.049,1235.932l-2-0.019c0.4-42.13-4.986-85.148-10.196-126.75
						c-6.71-53.582-13.648-108.987-8.333-163.223c4.031-41.127,2.936-83.131,1.876-123.753
						c-0.968-37.119-1.969-75.501,0.933-113.193c2.924-37.971,7.983-68.632,15.925-96.491c3.613-12.674,7.808-25.391,11.864-37.689
						c5.994-18.173,12.191-36.965,16.61-55.926c6.813-29.238,8.268-59.549,9.674-88.863c0.417-8.694,0.849-17.683,1.413-26.527
						c3.404-53.346,6.106-98.207,8.229-143.752l1.998,0.093c-2.123,45.559-4.826,90.43-8.231,143.786
						c-0.563,8.829-0.994,17.81-1.411,26.496c-1.411,29.403-2.87,59.807-9.725,89.221c-4.438,19.048-10.65,37.883-16.659,56.099
						c-4.05,12.279-8.237,24.976-11.839,37.611c-7.903,27.727-12.941,58.262-15.854,96.096c-2.894,37.59-1.894,75.92-0.928,112.988
						c1.062,40.683,2.158,82.75-1.885,124c-5.294,54.013,1.631,109.306,8.327,162.778
						C1199.055,1150.582,1204.45,1193.668,1204.049,1235.932z"/>
				</g>
				<g>
					<path style="fill:#ED08FF;" d="M1249.983,1229.152c-0.982-49.508-9.395-98.981-17.53-146.826
						c-8.729-51.337-17.756-104.422-17.665-157.794c0.05-29.433-0.111-59.372-0.269-88.326
						c-0.266-49.283-0.541-100.243,0.218-150.338c0.549-36.158,9.205-71.215,17.576-105.118c7.475-30.273,15.204-61.577,17.1-93.486
						c1.765-29.723,1.334-60.236,0.918-89.745c-0.189-13.446-0.386-27.35-0.37-40.959l0.012-10.037
						c0.053-44.53,0.107-90.577,0.012-135.866l2-0.004c0.096,45.292,0.041,91.34-0.012,135.872l-0.012,10.037
						c-0.016,13.594,0.18,27.49,0.37,40.929c0.416,29.545,0.848,60.095-0.922,89.891c-1.905,32.093-9.657,63.487-17.154,93.847
						c-8.345,33.794-16.973,68.739-17.518,104.669c-0.759,50.074-0.483,101.024-0.218,150.297c0.157,28.957,0.318,58.9,0.269,88.341
						c-0.091,53.201,8.921,106.2,17.637,157.455c8.147,47.917,16.573,97.465,17.559,147.122L1249.983,1229.152z"/>
				</g>
			</g>
		</g>
		<g style="clip-path:url(#SVGID_00000132786892876262948410000002056192860673456826_);">
			<g>
				<g>
					<path style="fill:#FF0BA8;" d="M-102.759,755.12h-2l-0.001-257.752c-0.001-186.153-0.003-372.307,0.002-558.461h2
						c-0.005,186.154-0.003,372.308-0.002,558.461L-102.759,755.12z"/>
				</g>
				<g>
					<path style="fill:#F40BAC;" d="M-102.761,716.302l-1.997-0.1c12.713-254.254,26.063-512.488,39.68-767.53l1.997,0.106
						C-76.697,203.818-90.047,462.05-102.761,716.302z"/>
				</g>
				<g>
					<path style="fill:#E90BB0;" d="M-102.765,677.489l-1.989-0.209c1.548-14.708,3.063-29.421,4.577-44.135
						c5.124-49.795,10.423-101.285,17.028-151.762c6.232-47.626,9.474-95.673,12.609-142.139c0.662-9.813,1.326-19.648,2.018-29.517
						c2.079-29.622,7.276-59.256,12.303-87.913c3.579-20.404,7.279-41.504,9.822-62.418c4.203-34.58,8.28-69.763,12.222-103.789
						c3.197-27.596,6.503-56.131,9.858-84.185l1.986,0.237c-3.355,28.05-6.661,56.583-9.858,84.178
						c-3.942,34.028-8.02,69.214-12.223,103.799c-2.549,20.966-6.254,42.092-9.837,62.522
						c-5.018,28.607-10.206,58.188-12.277,87.707c-0.692,9.868-1.356,19.701-2.018,29.512
						c-3.137,46.496-6.381,94.575-12.622,142.264c-6.602,50.449-11.899,101.926-17.022,151.707
						C-99.702,648.065-101.216,662.78-102.765,677.489z"/>
				</g>
				<g>
					<path style="fill:#DE0BB4;" d="M-102.773,638.68l-1.973-0.328c11.17-67.018,21.425-127.491,33.829-188.928l0.753-3.727
						c5.19-25.675,10.558-52.225,12.933-78.679c0.733-8.167,1.214-16.435,1.68-24.432c0.916-15.734,1.863-32.003,4.773-48.045
						c4.197-23.129,11.229-45.889,18.029-67.898c6.213-20.109,12.638-40.902,16.878-61.912c6.551-32.459,13.026-65.5,19.287-97.453
						C7.8,44.908,12.333,21.775,16.854-0.964l1.962,0.39C14.295,22.163,9.762,45.294,5.379,67.664
						c-6.262,31.955-12.736,64.999-19.29,97.464c-4.26,21.108-10.7,41.951-16.927,62.107c-6.783,21.953-13.797,44.654-17.972,67.665
						c-2.889,15.922-3.832,32.13-4.744,47.804c-0.466,8.012-0.949,16.296-1.685,24.494c-2.385,26.564-7.763,53.168-12.965,78.896
						l-0.753,3.727C-81.354,511.226-91.606,571.682-102.773,638.68z"/>
				</g>
				<g>
					<path style="fill:#D30BB9;" d="M-102.786,599.878l-1.947-0.459c11.771-50.024,25.049-100.439,37.89-149.195
						c2.613-9.923,5.228-19.85,7.833-29.784c5.048-19.25,7.756-39.489,10.375-59.063c3.51-26.233,7.14-53.36,16.451-78.481
						c6.048-16.319,13.632-31.921,20.966-47.009c9.453-19.448,19.228-39.557,25.703-61.241
						C30.188,122.054,45.057,68.999,57.761,23.398l1.927,0.537C46.981,69.544,32.109,122.61,16.401,175.219
						c-6.521,21.84-16.332,42.024-25.82,61.543c-7.313,15.045-14.875,30.603-20.89,46.83c-9.233,24.912-12.848,51.926-16.344,78.051
						c-2.627,19.633-5.344,39.935-10.423,59.305c-2.605,9.936-5.22,19.862-7.834,29.786
						C-77.747,499.476-91.021,549.878-102.786,599.878z"/>
				</g>
				<g>
					<path style="fill:#C80BBD;" d="M-102.805,561.08l-1.909-0.598c8.409-26.896,17.895-53.929,27.067-80.069
						c9.801-27.931,19.935-56.811,28.766-85.561c4.177-13.598,6.952-27.722,9.635-41.381c5.261-26.777,10.7-54.465,26.959-78.548
						c5.275-7.814,11.386-15.125,17.295-22.196c4.21-5.038,8.564-10.248,12.568-15.583c11.537-15.376,18.31-32.181,25.481-49.973
						l0.628-1.557c17.778-44.081,35.453-92.884,54.037-149.2l1.899,0.627C81.024,93.398,63.333,142.241,45.54,186.362l-0.627,1.556
						c-7.221,17.917-14.042,34.84-25.736,50.425c-4.035,5.377-8.406,10.607-12.633,15.665c-5.877,7.032-11.955,14.304-17.172,22.033
						c-16.031,23.747-21.191,50.01-26.653,77.814c-2.693,13.71-5.478,27.886-9.686,41.583
						c-8.843,28.788-18.984,57.687-28.791,85.636C-84.927,507.2-94.406,534.214-102.805,561.08z"/>
				</g>
				<g>
					<path style="fill:#BD0CC1;" d="M-102.821,522.287l-1.852-0.756c7.531-18.439,16.086-37.065,24.359-55.078
						c15.655-34.086,31.844-69.332,42.14-105.453l1.29-4.538c9.461-33.333,17.632-62.121,45.847-86.417
						c3.902-3.36,8.032-6.603,12.025-9.738c7.437-5.839,15.126-11.877,21.619-18.893c11.91-12.869,19.7-29.126,27.232-44.847
						c1.12-2.337,2.236-4.668,3.363-6.981c21.492-44.128,40.541-92.303,61.766-156.207l1.898,0.63
						c-21.254,63.991-40.335,112.243-61.867,156.453c-1.125,2.309-2.239,4.636-3.357,6.969
						c-7.597,15.855-15.452,32.25-27.568,45.341c-6.6,7.132-14.353,13.22-21.852,19.107c-3.976,3.122-8.087,6.35-11.956,9.681
						c-27.76,23.904-35.854,52.424-45.228,85.448l-1.29,4.54c-10.338,36.268-26.56,71.585-42.247,105.739
						C-86.761,485.282-95.307,503.888-102.821,522.287z"/>
				</g>
				<g>
					<path style="fill:#B20CC5;" d="M-102.822,483.493l-1.77-0.93c2.399-4.567,4.796-9.121,7.189-13.665
						c23.704-45.017,46.093-87.536,65.067-133.925c12.269-29.996,30.725-49.636,63.699-67.791
						c37.099-20.426,53.952-48.887,70.665-81.261c26.33-51.003,45.434-104.973,65.926-165.158l1.894,0.645
						c-20.518,60.263-39.649,114.306-66.042,165.431c-16.866,32.671-33.885,61.398-71.478,82.096
						C-0.208,286.847-18.406,306.2-30.485,335.73c-19.011,46.478-41.422,89.039-65.149,134.1
						C-98.026,474.373-100.423,478.926-102.822,483.493z"/>
				</g>
				<g>
					<path style="fill:#A70CC9;" d="M-102.832,444.696l-1.671-1.1c3.811-5.792,7.661-11.568,11.513-17.347
						c12.171-18.258,24.757-37.137,35.911-56.4c3.99-6.892,7.616-14.198,11.123-21.264c6.123-12.336,12.455-25.093,21.003-36.251
						c16.948-22.12,39.179-31.217,62.716-40.848c5.419-2.218,11.024-4.511,16.61-6.985c37.556-16.638,56.144-53.791,74.119-89.721
						l0.689-1.377c23.393-46.748,42.186-96.595,60.36-144.801c3.123-8.282,6.243-16.558,9.385-24.818l1.869,0.711
						c-3.141,8.258-6.261,16.533-9.382,24.812c-18.192,48.254-37.003,98.15-60.443,144.991l-0.688,1.376
						c-18.133,36.246-36.884,73.726-75.097,90.655c-5.613,2.486-11.231,4.785-16.663,7.008
						c-23.279,9.525-45.267,18.523-61.886,40.213c-8.431,11.004-14.719,23.672-20.799,35.924
						c-3.521,7.094-7.162,14.429-11.184,21.377c-11.186,19.318-23.789,38.224-35.978,56.508
						C-95.176,433.134-99.024,438.907-102.832,444.696z"/>
				</g>
				<g>
					<path style="fill:#9C0CCD;" d="M-102.874,405.897l-1.565-1.245c19.513-24.524,35.157-45.746,49.235-66.79
						c10.848-16.216,23.218-32.826,40.13-44.461c15.757-10.841,33.932-15.55,51.509-20.104c13.711-3.553,27.89-7.226,40.782-13.789
						c34.005-17.31,54.992-60.194,71.855-94.652c1.597-3.264,3.158-6.454,4.691-9.542c14.798-29.814,28.421-60.807,41.596-90.779
						c11.157-25.381,22.693-51.626,34.896-77.05l1.803,0.865c-12.188,25.394-23.718,51.624-34.868,76.99
						c-13.184,29.994-26.817,61.008-41.636,90.864c-1.531,3.084-3.09,6.271-4.686,9.531c-16.994,34.725-38.145,77.941-72.745,95.555
						c-13.086,6.662-27.372,10.363-41.188,13.942c-17.409,4.51-35.411,9.174-50.877,19.815
						c-16.634,11.444-28.864,27.875-39.602,43.926C-67.651,360.064-83.327,381.329-102.874,405.897z"/>
				</g>
				<g>
					<path style="fill:#910CD1;" d="M-102.968,367.101l-1.47-1.357c6.331-6.858,12.587-14.175,18.638-21.25
						c23.256-27.196,47.303-55.318,82.992-66.811c12.246-3.943,25.401-5.887,38.123-7.768c22.183-3.278,45.12-6.667,63.567-20.82
						c31.37-24.065,52.412-65.498,70.977-102.054c2.317-4.562,4.588-9.033,6.828-13.367c5.236-10.133,10.472-20.474,15.535-30.474
						c21.54-42.544,43.813-86.536,72.116-126.304l1.63,1.16c-28.217,39.645-50.456,83.569-71.962,126.047
						c-5.065,10.004-10.302,20.348-15.542,30.489c-2.237,4.33-4.506,8.797-6.821,13.355
						c-18.662,36.745-39.813,78.393-71.542,102.735c-18.859,14.468-42.058,17.896-64.493,21.211
						c-12.642,1.868-25.714,3.8-37.802,7.692c-35.15,11.319-59.011,39.223-82.085,66.208
						C-90.343,352.884-96.611,360.215-102.968,367.101z"/>
				</g>
				<g>
					<path style="fill:#860CD6;" d="M-103.115,328.288l-1.387-1.441c37.7-36.275,68.731-58.172,115.783-62.744
						c6.016-0.585,11.949-1.037,17.686-1.474c33.955-2.586,63.279-4.821,89.421-31.924c32.585-33.783,56.094-74.923,78.829-114.71
						c28.715-50.249,58.407-102.21,106.605-139.578l1.226,1.581c-47.884,37.125-77.476,88.91-106.094,138.99
						c-22.796,39.892-46.369,81.143-79.127,115.105c-26.671,27.651-56.347,29.912-90.708,32.53
						c-5.727,0.436-11.649,0.887-17.645,1.47C-34.999,270.609-65.733,292.317-103.115,328.288z"/>
				</g>
				<g>
					<path style="fill:#7B0CDA;" d="M-103.242,289.508l-1.219-1.585c42.763-32.885,82.088-38.589,127.979-37.032
						c2.194,0.074,4.401,0.161,6.617,0.247c18.354,0.718,37.336,1.46,54.804-4.4c20.647-6.926,37.532-23.355,51.326-38.512
						c22.4-24.615,40.767-53.119,58.528-80.684c9.145-14.193,18.602-28.87,28.49-42.829c33.285-46.989,71.183-77.144,126.72-100.83
						l0.784,1.84c-55.173,23.53-92.817,53.481-125.873,100.146c-9.863,13.923-19.307,28.581-28.44,42.756
						c-17.806,27.634-36.217,56.209-58.73,80.946c-13.967,15.348-31.088,31.991-52.17,39.062
						c-17.815,5.976-36.981,5.227-55.518,4.502c-2.212-0.086-4.416-0.172-6.606-0.247
						C-22.012,251.344-60.951,256.986-103.242,289.508z"/>
				</g>
				<g>
					<path style="fill:#700CDE;" d="M-103.353,250.759l-0.972-1.748c42.84-23.802,82.132-19.54,127.628-14.606
						c3.886,0.421,7.815,0.848,11.794,1.261c45.739,4.752,80.98-10.921,117.833-52.415c14.979-16.864,28.503-35.425,41.582-53.374
						c15.623-21.442,31.779-43.614,50.556-63.102C286.226,24.06,339.524,9.175,399.868-4.608l0.445,1.95
						c-60.025,13.71-113.03,28.503-153.804,70.82c-18.682,19.39-34.796,41.505-50.38,62.892
						c-13.107,17.988-26.661,36.588-41.703,53.525c-37.33,42.031-73.079,57.907-119.536,53.076
						c-3.981-0.414-7.913-0.84-11.802-1.262C-22.071,231.494-61.068,227.266-103.353,250.759z"/>
				</g>
				<g>
					<path style="fill:#650CE2;" d="M59.301,219.186c-2.158,0-4.336-0.058-6.553-0.178c-18.401-0.996-35.905-4.426-52.833-7.744
						c-34.353-6.733-66.799-13.09-103.363,0.716l-0.706-1.871c37.096-14.008,69.815-7.596,104.453-0.808
						c16.861,3.304,34.295,6.721,52.557,7.709c52.077,2.822,87.842-28.953,115.952-60.405c8.928-9.99,17.66-20.752,26.104-31.161
						c22.368-27.57,45.498-56.079,75.952-75.234c42.431-26.688,94.445-32.736,144.747-38.584c11.931-1.387,23.2-2.697,34.417-4.281
						l0.279,1.98c-11.24,1.587-22.521,2.899-34.465,4.288c-50.081,5.822-101.866,11.843-143.914,38.291
						c-30.173,18.978-53.197,47.356-75.463,74.801c-8.459,10.426-17.206,21.207-26.166,31.233
						C143.064,188.413,108.688,219.186,59.301,219.186z"/>
				</g>
				<g>
					<path style="fill:#5A0CE6;" d="M71.866,196.695c-1.806,0-3.621-0.047-5.464-0.143c-23.446-1.224-45.624-7.682-67.071-13.928
						c-34.006-9.903-66.127-19.257-102.839-9.492l-0.514-1.933c37.251-9.91,69.631-0.479,103.913,9.504
						c21.337,6.214,43.401,12.639,66.616,13.851c49.467,2.582,85.269-31.027,117.701-65.674c3.189-3.406,6.361-6.835,9.533-10.264
						C223.13,86.852,253.52,54.005,297.108,40.46c39.699-12.336,81.271-14.747,121.474-17.079
						c25.838-1.499,52.557-3.048,78.537-7.216l0.316,1.975c-26.08,4.184-52.849,5.737-78.737,7.238
						c-40.083,2.325-81.53,4.729-120.996,16.992c-43.077,13.386-73.282,46.033-102.493,77.606c-3.174,3.431-6.35,6.863-9.541,10.272
						C154.113,163.956,119.361,196.695,71.866,196.695z"/>
				</g>
				<g>
					<path style="fill:#4F0DEA;" d="M80.55,172.88c-3.831,0-7.735-0.229-11.719-0.708c-23.856-2.865-46.42-11.572-68.241-19.993
						c-34.283-13.23-66.664-25.726-104.146-17.955l-0.406-1.958c38.055-7.893,72.226,5.294,105.272,18.047
						c21.706,8.377,44.151,17.039,67.759,19.874c52.172,6.265,90.978-31.353,125.222-64.541c1.722-1.669,3.437-3.331,5.144-4.979
						c37.989-36.666,73.505-60.872,133.099-68.242c26.14-3.234,53.792-2.773,80.535-2.327c42.061,0.702,85.558,1.427,124.822-12.07
						l0.65,1.892c-39.597,13.611-83.273,12.882-125.505,12.179c-26.674-0.444-54.255-0.904-80.257,2.311
						c-59.041,7.303-94.263,31.317-131.955,67.697c-1.706,1.647-3.419,3.307-5.141,4.975
						C163.711,138.068,127.792,172.879,80.55,172.88z"/>
				</g>
				<g>
					<path style="fill:#440DEE;" d="M88.924,148.136c-2.212,0-4.443-0.082-6.702-0.25c-29.448-2.188-56.301-14.716-82.269-26.831
						C-32.317,106-65.684,90.433-103.629,95.369l-0.258-1.983c38.52-5.014,72.156,10.681,104.686,25.856
						c25.805,12.039,52.489,24.488,81.572,26.649c44.614,3.306,78.763-26.631,111.791-55.591
						c7.113-6.237,13.833-12.129,20.652-17.685c46.734-38.07,94.398-45.333,156.16-44.716c15.964,0.16,32.552,1.321,48.593,2.443
						c53.205,3.722,108.224,7.571,154.175-23.294l1.115,1.66c-46.522,31.249-101.887,27.375-155.43,23.629
						c-16.012-1.12-32.569-2.278-48.474-2.438c-61.304-0.616-108.61,6.576-154.877,44.267C209.286,79.7,202.58,85.58,195.48,91.805
						C165.275,118.29,131.237,148.134,88.924,148.136z"/>
				</g>
				<g>
					<path style="fill:#390DF3;" d="M94.635,122.131c-0.638,0-1.272-0.006-1.914-0.019c-34.396-0.687-64.647-17.108-93.902-32.988
						c-31.708-17.212-64.506-35.003-102.515-32.616l-0.126-1.996c38.589-2.426,71.638,15.508,103.595,32.854
						c29.044,15.766,59.078,32.069,92.987,32.746c39.912,0.805,71.437-24.118,101.925-48.213
						c11.693-9.241,23.785-18.797,35.976-26.514C280.751,13.675,340.118,19.39,397.53,24.917c3.395,0.327,6.776,0.652,10.143,0.969
						c7.677,0.721,15.517,1.55,23.099,2.352c28.071,2.968,57.101,6.036,85.507,4.512c36.369-1.953,63.883-22.785,91.181-45.814
						l1.289,1.528c-26.469,22.33-55.405,44.298-92.363,46.283c-28.567,1.537-57.676-1.543-85.825-4.52
						c-7.576-0.801-15.41-1.629-23.076-2.35c-3.368-0.316-6.752-0.642-10.148-0.969c-57.076-5.494-116.095-11.177-165.606,20.166
						c-12.102,7.662-24.152,17.185-35.805,26.394C165.648,97.397,134.349,122.128,94.635,122.131z"/>
				</g>
				<g>
					<path style="fill:#2E0DF7;" d="M99.813,94.892C62.137,94.894,29.727,75.294-1.626,56.338
						c-31.464-19.024-64.001-38.696-101.952-38.696c-0.06,0-0.118,0-0.179,0l-0.003-2c0.059,0,0.124,0,0.183,0
						c38.512,0,71.285,19.817,102.986,38.984C30.67,73.528,62.997,93.047,100.336,92.891c36.431-0.179,65.972-21.059,94.541-41.251
						c16.695-11.8,33.959-24.002,52.43-31.965C294.52-0.677,353.321,9.51,405.202,18.497c12.568,2.177,24.438,4.233,35.891,5.836
						c4.371,0.611,8.74,1.268,13.365,1.962c28.288,4.247,60.35,9.06,87.897,1.7c30.957-8.27,56.82-29.633,81.832-50.293
						c5.415-4.474,11.016-9.099,16.485-13.427l1.24,1.568c-5.452,4.315-11.044,8.934-16.452,13.4
						c-25.177,20.796-51.211,42.301-82.589,50.684c-27.952,7.466-60.231,2.621-88.711-1.655c-4.62-0.693-8.983-1.349-13.345-1.959
						c-11.484-1.607-23.371-3.665-35.954-5.846c-51.605-8.94-110.097-19.072-156.762,1.044c-18.279,7.88-35.456,20.02-52.067,31.761
						c-28.822,20.371-58.625,41.436-95.685,41.618C100.17,94.892,99.989,94.892,99.813,94.892z"/>
				</g>
				<g>
					<path style="fill:#230DFB;" d="M104.074,66.984C64.73,66.985,30.76,44.671-2.173,23.04
						c-31.563-20.73-64.2-42.166-101.643-44.268l0.112-1.997C-65.724-21.092-32.858,0.494-1.075,21.369
						c35.217,23.13,71.635,47.052,114.284,43.204c30.655-2.763,56.518-19.165,81.53-35.026
						c21.808-13.83,44.359-28.131,70.202-33.614c28.547-6.058,60.117-0.769,87.971,3.895l4.009,0.67
						c17.279,2.879,34.748,6.329,51.642,9.666c21.169,4.181,43.06,8.503,64.755,11.738c33.939,5.061,67.198,8.12,100.935-9.776
						c17.416-9.238,33.545-21.083,49.143-32.537c16.325-11.989,33.207-24.386,51.67-33.893l0.916,1.778
						c-18.322,9.434-35.14,21.784-51.402,33.727C608.924-7.303,592.735,4.585,575.19,13.891
						c-34.275,18.181-67.887,15.098-102.168,9.988c-21.742-3.242-43.656-7.569-64.848-11.754
						c-16.879-3.333-34.333-6.78-51.583-9.655l-4.01-0.67c-27.679-4.636-59.05-9.888-87.226-3.912
						C239.864,3.297,217.468,17.5,195.81,31.235c-25.213,15.989-51.285,32.523-82.421,35.33
						C110.25,66.848,107.144,66.984,104.074,66.984z"/>
				</g>
				<g>
					<path style="fill:#180DFF;" d="M109.128,38.022C67.578,38.025,32.103,13.127-2.323-11.031
						C-33.89-33.181-66.53-56.086-103.865-60.099l0.214-1.988C-65.804-58.02-32.948-34.964-1.175-12.668
						c37.958,26.636,77.209,54.182,124.202,47.74c26.751-3.666,50.473-16.794,73.415-29.49
						c26.855-14.861,54.623-30.229,87.45-30.573c42.971-0.418,85.58,10.924,126.79,21.923c31.32,8.359,63.707,17.003,95.914,20.345
						c44.491,4.616,77.178-16.576,111.79-39.012c28.411-18.417,57.789-37.461,93.997-40.364l0.16,1.994
						c-35.704,2.862-64.867,21.767-93.069,40.048C586.094,1.58,551.575,23.955,506.39,19.266
						c-32.364-3.358-64.828-12.022-96.224-20.402C369.085-12.1,326.631-23.45,283.912-22.991
						c-32.321,0.338-59.865,15.582-86.501,30.323c-23.103,12.785-46.991,26.005-74.112,29.722
						C118.497,37.711,113.772,38.022,109.128,38.022z"/>
				</g>
			</g>
		</g>
		<g style="clip-path:url(#SVGID_00000132786892876262948410000002056192860673456826_);">
			<g>
				
					<radialGradient id="SVGID_00000027570220556440709470000002080526853109397128_" cx="822.4056" cy="2261.7329" r="85.1301" gradientTransform="matrix(0.9632 0 0 0.2019 26.0502 659.9348)" gradientUnits="userSpaceOnUse">
					<stop  offset="0" style="stop-color:#C137F7"/>
					<stop  offset="1" style="stop-color:#000000"/>
				</radialGradient>
				
					<ellipse style="fill:url(#SVGID_00000027570220556440709470000002080526853109397128_);" cx="818.191" cy="1116.579" rx="81.992" ry="17.189"/>
				
					<radialGradient id="SVGID_00000057106493715452317600000004915297376268276141_" cx="811.5105" cy="2467.1113" r="85.1261" gradientTransform="matrix(0.9543 0.1299 -0.0272 0.2001 71.0802 561.0307)" gradientUnits="userSpaceOnUse">
					<stop  offset="0" style="stop-color:#C137F7"/>
					<stop  offset="1" style="stop-color:#000000"/>
				</radialGradient>
				<path style="fill:url(#SVGID_00000057106493715452317600000004915297376268276141_);" d="M859.641,1171.177
					c-1.281,9.406-38.692,12.079-83.561,5.97c-44.869-6.109-80.204-18.687-78.923-28.094c1.281-9.406,38.692-12.079,83.561-5.97
					C825.587,1149.192,860.922,1161.77,859.641,1171.177z"/>
				
					<radialGradient id="SVGID_00000142142464196631959640000003389464463554635140_" cx="660.2143" cy="3827.5979" r="85.1092" gradientTransform="matrix(0.9632 0 0 0.101 26.0502 803.2561)" gradientUnits="userSpaceOnUse">
					<stop  offset="0" style="stop-color:#C137F7"/>
					<stop  offset="1" style="stop-color:#000000"/>
				</radialGradient>
				
					<ellipse style="fill:url(#SVGID_00000142142464196631959640000003389464463554635140_);" cx="661.969" cy="1189.844" rx="81.992" ry="8.594"/>
				
					<radialGradient id="SVGID_00000002351156390508254190000016671142133925180844_" cx="766.7777" cy="2382" r="59.3016" gradientTransform="matrix(0.8341 -0.4816 0.101 0.1749 -4.5435 1133.9174)" gradientUnits="userSpaceOnUse">
					<stop  offset="0" style="stop-color:#C137F7"/>
					<stop  offset="1" style="stop-color:#000000"/>
				</radialGradient>
				<path style="fill:url(#SVGID_00000002351156390508254190000016671142133925180844_);" d="M925.078,1152.687
					c3.307,5.728-16.161,23.159-43.483,38.933c-27.322,15.774-52.151,23.918-55.458,18.191
					c-3.307-5.728,16.161-23.159,43.483-38.933C896.942,1155.104,921.771,1146.959,925.078,1152.687z"/>
				
					<radialGradient id="SVGID_00000142166313517359346850000015069628299687076028_" cx="874.8452" cy="1992.5586" r="59.3077" gradientTransform="matrix(0.2705 -0.9244 0.1938 0.0567 460.3439 1823.1807)" gradientUnits="userSpaceOnUse">
					<stop  offset="0" style="stop-color:#C137F7"/>
					<stop  offset="1" style="stop-color:#000000"/>
				</radialGradient>
				<path style="fill:url(#SVGID_00000142166313517359346850000015069628299687076028_);" d="M1099.188,1072.626
					c6.348,1.857,4.312,27.909-4.547,58.188s-21.186,53.32-27.534,51.463c-6.348-1.857-4.312-27.909,4.547-58.188
					S1092.84,1070.769,1099.188,1072.626z"/>
				
					<radialGradient id="SVGID_00000022525320458707820140000000786345975735818929_" cx="1169.4741" cy="530.7935" r="59.3162" gradientTransform="matrix(-0.1646 -1.5911 0.2008 -0.0208 1218.45 2718.177)" gradientUnits="userSpaceOnUse">
					<stop  offset="0" style="stop-color:#C137F7"/>
					<stop  offset="1" style="stop-color:#000000"/>
				</radialGradient>
				<path style="fill:url(#SVGID_00000022525320458707820140000000786345975735818929_);" d="M1122.777,752.017
					c6.579-0.68,16.282,41.018,21.673,93.137c5.391,52.119,4.427,94.921-2.152,95.601c-6.579,0.681-16.282-41.018-21.672-93.137
					C1115.235,795.5,1116.198,752.697,1122.777,752.017z"/>
				
					<radialGradient id="SVGID_00000173873692836680377420000001291940358493911466_" cx="1009.2455" cy="580.6637" r="59.3126" gradientTransform="matrix(-0.0862 -1.5973 0.2016 -0.0109 1128.3444 2718.3992)" gradientUnits="userSpaceOnUse">
					<stop  offset="0" style="stop-color:#C137F7"/>
					<stop  offset="1" style="stop-color:#000000"/>
				</radialGradient>
				<path style="fill:url(#SVGID_00000173873692836680377420000001291940358493911466_);" d="M1153.298,1005.267
					c6.604-0.356,14.246,41.769,17.069,94.09c2.823,52.321-0.243,95.024-6.847,95.38c-6.604,0.356-14.246-41.769-17.069-94.09
					C1143.628,1048.327,1146.694,1005.623,1153.298,1005.267z"/>
				
					<radialGradient id="SVGID_00000139972499100411988090000016026413205220039325_" cx="1114.7861" cy="853.1089" r="59.3101" gradientTransform="matrix(0.0537 -1.5987 0.2018 0.0068 953.5306 2706.0239)" gradientUnits="userSpaceOnUse">
					<stop  offset="0" style="stop-color:#C137F7"/>
					<stop  offset="1" style="stop-color:#000000"/>
				</radialGradient>
				<path style="fill:url(#SVGID_00000139972499100411988090000016026413205220039325_);" d="M1188.74,834.797
					c6.61,0.222,10.542,42.854,8.781,95.221c-1.76,52.367-8.546,94.639-15.156,94.417s-10.542-42.854-8.781-95.221
					C1175.344,876.847,1182.129,834.575,1188.74,834.797z"/>
				
					<radialGradient id="SVGID_00000017488557020404014670000011584975066645733248_" cx="1118.3562" cy="266.5647" r="58.1244" gradientTransform="matrix(-0.1646 -1.5911 0.2008 -0.0208 1227.0106 2714.5776)" gradientUnits="userSpaceOnUse">
					<stop  offset="0" style="stop-color:#C137F7"/>
					<stop  offset="1" style="stop-color:#000000"/>
				</radialGradient>
				<path style="fill:url(#SVGID_00000017488557020404014670000011584975066645733248_);" d="M1086.891,837.143
					c6.447-0.667,15.955,40.194,21.237,91.266c5.282,51.072,4.338,93.014-2.108,93.681c-6.447,0.667-15.955-40.194-21.237-91.266
					C1079.5,879.752,1080.444,837.81,1086.891,837.143z"/>
				
					<radialGradient id="SVGID_00000183949395761509187470000001481406479897193917_" cx="1083.3904" cy="811.0599" r="34.471" gradientTransform="matrix(0.0537 -1.5987 0.2018 0.0068 960.7695 2702.4336)" gradientUnits="userSpaceOnUse">
					<stop  offset="0" style="stop-color:#C137F7"/>
					<stop  offset="1" style="stop-color:#000000"/>
				</radialGradient>
				<path style="fill:url(#SVGID_00000183949395761509187470000001481406479897193917_);" d="M1184.472,920.824
					c3.842,0.129,6.127,24.907,5.104,55.343c-1.023,30.436-4.967,55.004-8.809,54.875s-6.127-24.907-5.104-55.343
					C1176.686,945.263,1180.63,920.695,1184.472,920.824z"/>
				
					<radialGradient id="SVGID_00000135674433979524216830000011915632165368963761_" cx="1200.1893" cy="1028.4879" r="59.305" gradientTransform="matrix(0.1664 -0.9487 0.1989 0.0349 756.9128 1793.7639)" gradientUnits="userSpaceOnUse">
					<stop  offset="0" style="stop-color:#C137F7"/>
					<stop  offset="1" style="stop-color:#000000"/>
				</radialGradient>
				<path style="fill:url(#SVGID_00000135674433979524216830000011915632165368963761_);" d="M1171.062,634.774
					c6.514,1.143,7.376,27.26,1.923,58.334c-5.452,31.074-15.153,55.338-21.667,54.195c-6.514-1.143-7.375-27.26-1.923-58.334
					C1154.847,657.895,1164.548,633.631,1171.062,634.774z"/>
				
					<radialGradient id="SVGID_00000164503006844261925390000013505799003271489724_" cx="1118.7489" cy="693.9896" r="59.305" gradientTransform="matrix(0.1664 -0.9487 0.1989 0.0349 756.9128 1793.7639)" gradientUnits="userSpaceOnUse">
					<stop  offset="0" style="stop-color:#C137F7"/>
					<stop  offset="1" style="stop-color:#000000"/>
				</radialGradient>
				<path style="fill:url(#SVGID_00000164503006844261925390000013505799003271489724_);" d="M1090.979,700.363
					c6.514,1.143,7.375,27.26,1.923,58.334c-5.452,31.074-15.153,55.338-21.667,54.195c-6.514-1.143-7.376-27.26-1.924-58.334
					C1074.764,723.484,1084.465,699.22,1090.979,700.363z"/>
				
					<radialGradient id="SVGID_00000101825976660360281470000002371122445372753554_" cx="854.8911" cy="2459.3091" r="43.5005" gradientTransform="matrix(0.7573 -0.5951 0.1248 0.1588 33.1667 1271.9167)" gradientUnits="userSpaceOnUse">
					<stop  offset="0" style="stop-color:#C137F7"/>
					<stop  offset="1" style="stop-color:#000000"/>
				</radialGradient>
				<path style="fill:url(#SVGID_00000101825976660360281470000002371122445372753554_);" d="M1020.444,1127.818
					c2.998,3.815-9.323,18.499-27.519,32.799c-18.196,14.299-35.377,22.799-38.375,18.985c-2.998-3.815,9.323-18.499,27.519-32.799
					C1000.266,1132.503,1017.446,1124.003,1020.444,1127.818z"/>
			</g>
			<g>
				
					<radialGradient id="SVGID_00000035510603989294794170000006967516591627390626_" cx="1673.2703" cy="-4672.106" r="46.653" gradientTransform="matrix(0.6513 -1.4611 0.1844 0.0822 -123.9317 2951.988)" gradientUnits="userSpaceOnUse">
					<stop  offset="0" style="stop-color:#C137F7"/>
					<stop  offset="1" style="stop-color:#000000"/>
				</radialGradient>
				<path style="fill:url(#SVGID_00000035510603989294794170000006967516591627390626_);" d="M134.715,54.966
					c4.752,2.118-4.999,34.351-21.778,71.994c-16.78,37.643-34.234,66.442-38.986,64.324c-4.752-2.118,4.999-34.351,21.779-71.994
					S129.963,52.848,134.715,54.966z"/>
				
					<radialGradient id="SVGID_00000065054953585580958840000007104559665071421364_" cx="1675.7074" cy="-4420.1938" r="46.6581" gradientTransform="matrix(0.936 -1.2972 0.1637 0.1181 -655.8768 2832.512)" gradientUnits="userSpaceOnUse">
					<stop  offset="0" style="stop-color:#C137F7"/>
					<stop  offset="1" style="stop-color:#000000"/>
				</radialGradient>
				<path style="fill:url(#SVGID_00000065054953585580958840000007104559665071421364_);" d="M232.665,76.244
					c4.219,3.044-11.911,32.605-36.027,66.027c-24.116,33.422-47.085,58.048-51.304,55.004
					c-4.219-3.044,11.911-32.605,36.027-66.027C205.477,97.826,228.446,73.2,232.665,76.244z"/>
				
					<radialGradient id="SVGID_00000157288952405667484030000010815612729964642990_" cx="1675.5397" cy="-4899.4814" r="46.6497" gradientTransform="matrix(0.5671 -1.627 0.2493 0.0869 316.2342 3231.9077)" gradientUnits="userSpaceOnUse">
					<stop  offset="0" style="stop-color:#C137F7"/>
					<stop  offset="1" style="stop-color:#000000"/>
				</radialGradient>
				<path style="fill:url(#SVGID_00000157288952405667484030000010815612729964642990_);" d="M71.448,4.139
					c6.423,2.239-0.215,38.036-14.827,79.955c-14.611,41.919-31.663,74.086-38.086,71.848c-6.423-2.239,0.215-38.036,14.827-79.955
					C47.974,34.067,65.025,1.9,71.448,4.139z"/>
				
					<radialGradient id="SVGID_00000044858938464009236870000000072695049677962387_" cx="1592.3326" cy="-4645.3667" r="29.3401" gradientTransform="matrix(0.8764 -1.5179 0.4281 0.2472 651.8854 3783.5237)" gradientUnits="userSpaceOnUse">
					<stop  offset="0" style="stop-color:#C137F7"/>
					<stop  offset="1" style="stop-color:#000000"/>
				</radialGradient>
				<path style="fill:url(#SVGID_00000044858938464009236870000000072695049677962387_);" d="M84.437,173.652
					c6.937,4.005,1.049,27.191-13.152,51.788s-31.336,41.289-38.274,37.283c-6.937-4.005-1.049-27.191,13.152-51.788
					C60.364,186.339,77.5,169.647,84.437,173.652z"/>
				
					<radialGradient id="SVGID_00000042738814303884170030000001213695964195016874_" cx="1665.7955" cy="-4468.3433" r="33.8074" gradientTransform="matrix(0.738 -1.5569 0.2386 0.1131 2.6902 3231.5815)" gradientUnits="userSpaceOnUse">
					<stop  offset="0" style="stop-color:#C137F7"/>
					<stop  offset="1" style="stop-color:#000000"/>
				</radialGradient>
				<path style="fill:url(#SVGID_00000042738814303884170030000001213695964195016874_);" d="M190.854,80.094
					c4.454,2.112-3.106,27.391-16.887,56.464c-13.781,29.073-28.564,50.929-33.018,48.817c-4.454-2.112,3.106-27.391,16.887-56.464
					C171.616,99.839,186.399,77.983,190.854,80.094z"/>
				
					<radialGradient id="SVGID_00000158017811853776721730000007146512881359326600_" cx="1524.0986" cy="-2777.5481" r="46.6473" gradientTransform="matrix(-1.664 0.447 -0.0685 -0.255 2499.2998 -1336.0472)" gradientUnits="userSpaceOnUse">
					<stop  offset="0" style="stop-color:#C137F7"/>
					<stop  offset="1" style="stop-color:#000000"/>
				</radialGradient>
				<path style="fill:url(#SVGID_00000158017811853776721730000007146512881359326600_);" d="M75.834,74.352
					c-1.765-6.569,31.56-21.23,74.433-32.746c42.873-11.517,79.058-15.527,80.823-8.959c1.764,6.569-31.56,21.23-74.433,32.747
					C113.784,76.91,77.598,80.921,75.834,74.352z"/>
				
					<radialGradient id="SVGID_00000097474192982126735460000015000192382548376704_" cx="1298.6426" cy="-3078.5476" r="30.2608" gradientTransform="matrix(-1.664 0.447 -0.0685 -0.255 2499.2998 -1336.0472)" gradientUnits="userSpaceOnUse">
					<stop  offset="0" style="stop-color:#C137F7"/>
					<stop  offset="1" style="stop-color:#000000"/>
				</radialGradient>
				<path style="fill:url(#SVGID_00000097474192982126735460000015000192382548376704_);" d="M498.881,43.003
					c-1.145-4.261,20.474-13.772,48.286-21.243s51.286-10.073,52.431-5.811c1.145,4.261-20.474,13.772-48.286,21.243
					C523.5,44.662,500.025,47.264,498.881,43.003z"/>
				
					<radialGradient id="SVGID_00000142170203911903604880000004308172472641334436_" cx="1421.3944" cy="-2789.2747" r="46.65" gradientTransform="matrix(-1.7211 -0.082 0.0126 -0.2637 2878.248 -589.5018)" gradientUnits="userSpaceOnUse">
					<stop  offset="0" style="stop-color:#C137F7"/>
					<stop  offset="1" style="stop-color:#000000"/>
				</radialGradient>
				<path style="fill:url(#SVGID_00000142170203911903604880000004308172472641334436_);" d="M316.452,25.65
					c0.324-6.794,36.533-10.589,80.875-8.476c44.342,2.113,80.026,9.334,79.703,16.128c-0.324,6.794-36.533,10.589-80.875,8.476
					C351.813,39.664,316.129,32.444,316.452,25.65z"/>
				
					<radialGradient id="SVGID_00000040555914467846830610000005207871400883352486_" cx="1656.1702" cy="-3245.532" r="28.6883" gradientTransform="matrix(-1.6664 -0.4379 0.0671 -0.2553 3004.2417 29.3875)" gradientUnits="userSpaceOnUse">
					<stop  offset="0" style="stop-color:#C137F7"/>
					<stop  offset="1" style="stop-color:#000000"/>
				</radialGradient>
				<path style="fill:url(#SVGID_00000040555914467846830610000005207871400883352486_);" d="M-21.18,120.174
					c1.063-4.045,23.327-1.701,49.729,5.237c26.402,6.937,46.943,15.84,45.88,19.886c-1.063,4.045-23.327,1.701-49.729-5.237
					C-1.702,133.122-22.243,124.219-21.18,120.174z"/>
				
					<radialGradient id="SVGID_00000169525007234725949670000005024083726322990754_" cx="1615.6221" cy="-3464.9138" r="35.2976" gradientTransform="matrix(-1.664 0.447 -0.0685 -0.255 2499.2998 -1336.0472)" gradientUnits="userSpaceOnUse">
					<stop  offset="0" style="stop-color:#C137F7"/>
					<stop  offset="1" style="stop-color:#000000"/>
				</radialGradient>
				<path style="fill:url(#SVGID_00000169525007234725949670000005024083726322990754_);" d="M-10.489,285.468
					c-1.335-4.971,23.881-16.064,56.323-24.779c32.441-8.714,59.823-11.749,61.158-6.779c1.335,4.971-23.881,16.065-56.323,24.779
					C18.228,287.403-9.154,290.438-10.489,285.468z"/>
			</g>
		</g>
	</g>
</g>
</svg>
