<?xml version="1.0" encoding="utf-8"?>
<!-- Generator: Adobe Illustrator 27.5.0, SVG Export Plug-In . SVG Version: 6.00 Build 0)  -->
<svg version="1.1" id="Ñëîé_1" xmlns="http://www.w3.org/2000/svg" xmlns:xlink="http://www.w3.org/1999/xlink" x="0px" y="0px"
	 viewBox="0 0 5000 5000" style="enable-background:new 0 0 5000 5000;" xml:space="preserve">
<rect style="fill:#FFFFFF;" width="5000" height="5000"/>
<g>
	<path d="M2575.296,3654.281c5.947-17.883-6.869-40.122-25.144-44.284c-19.858-4.523-37.917,5.997-44.284,25.144
		c-6.465,19.44-12.93,38.879-19.394,58.319c-15.508,46.633-31.016,93.265-46.523,139.897
		c-18.671,56.143-37.341,112.285-56.011,168.427c-16.085,48.368-32.17,96.736-48.255,145.103
		c-7.047,21.191-14.013,42.413-21.127,63.583c-4.392-10.464-8.783-20.929-13.175-31.394c-13.454-32.058-26.908-64.115-40.362-96.173
		c-15.742-37.51-31.485-75.021-47.227-112.531c-12.76-30.402-25.519-60.805-38.278-91.207c-3.554-8.469-7.108-16.938-10.662-25.406
		c-0.76-1.811-1.52-3.623-2.281-5.434c-0.697-1.658-1.397-3.315-2.097-4.972c-5.419-12.842-13.811-22.563-25.042-30.75
		c-22.388-16.318-52.82-14.909-76.058-1.526c-6.06,3.49-12.12,6.98-18.18,10.47c-26.183,15.08-52.367,30.159-78.55,45.239
		c-35.057,20.19-70.113,40.38-105.17,60.57c-32.007,18.434-64.015,36.868-96.022,55.302c-16.453,9.476-32.906,18.951-49.359,28.427
		c0.996-3.004,2.094-5.978,3.07-8.913c4.116-12.378,8.233-24.755,12.349-37.133c13.695-41.181,27.39-82.361,41.084-123.542
		c16.747-50.358,33.494-100.716,50.241-151.074c14.523-43.67,29.046-87.341,43.568-131.011c7.043-21.18,14.587-42.263,21.15-63.598
		c0.094-0.304,0.201-0.605,0.302-0.908c5.947-17.883-6.869-40.122-25.144-44.284c-19.858-4.523-37.917,5.997-44.284,25.144
		c-4.931,14.827-9.862,29.655-14.793,44.482c-12.102,36.392-24.205,72.783-36.307,109.175
		c-15.186,45.664-30.372,91.328-45.557,136.992c-14.306,43.017-28.611,86.034-42.917,129.052
		c-9.449,28.415-18.899,56.831-28.349,85.246c-1.623,4.879-3.313,9.742-4.869,14.643c-5.965,18.778-3.453,41.46,7.815,57.857
		c16.963,24.683,44.686,36.387,74.18,30.695c11.09-2.14,20.861-8.383,30.515-13.944c11.634-6.7,23.268-13.401,34.902-20.101
		c37.642-21.679,75.284-43.358,112.926-65.037c40.506-23.328,81.012-46.657,121.518-69.985
		c23.752-13.679,47.503-27.358,71.255-41.037c0.258-0.149,0.514-0.295,0.771-0.443c0.281,0.551,0.547,1.116,0.806,1.688
		c7.615,18.146,15.231,36.291,22.846,54.437c18.801,44.799,37.603,89.599,56.404,134.398c18.06,43.032,36.12,86.064,54.179,129.096
		c5.255,12.521,10.51,25.043,15.765,37.564c1.072,2.555,2.144,5.11,3.217,7.665c1.904,4.534,3.535,9.252,6.022,13.513
		c6.061,10.382,15.652,20.256,26.44,25.732c10.904,5.535,23.129,9.183,35.499,8.53c12.251-0.646,25.147-3.679,35.465-10.636
		c14.644-9.874,23.975-22.778,29.697-39.401c1.918-5.574,3.721-11.19,5.581-16.784c9.974-29.993,19.948-59.985,29.923-89.978
		c15.089-45.373,30.178-90.746,45.267-136.118c16.381-49.256,32.761-98.513,49.142-147.769c13.65-41.046,27.3-82.091,40.95-123.137
		c7.204-21.662,14.407-43.324,21.611-64.986C2574.655,3656.209,2574.976,3655.245,2575.296,3654.281z"/>
	<path d="M3367.47,3847.122c-8.244-28.08-16.488-56.159-24.733-84.238c-11.542-39.313-23.084-78.625-34.627-117.938
		c-10.808-36.813-21.617-73.626-32.425-110.439c-6.022-20.511-12.044-41.022-18.066-61.533c-0.283-0.964-0.566-1.927-0.849-2.891
		c-5.301-18.053-25.566-31.202-44.284-25.144c-18.306,5.924-30.826,24.93-25.144,44.284c3.876,13.203,7.753,26.406,11.629,39.609
		c9.293,31.651,18.586,63.302,27.878,94.953c11.204,38.162,22.409,76.324,33.613,114.486c9.612,32.736,19.223,65.472,28.834,98.208
		c4.069,13.858,8.276,27.687,12.24,41.577c-1.741-1.124-3.464-2.271-5.192-3.371c-8.797-5.599-17.594-11.198-26.391-16.797
		c-29.151-18.554-58.301-37.107-87.452-55.661c-34.6-22.022-69.2-44.044-103.8-66.066c-28.099-17.885-56.198-35.769-84.297-53.653
		c-7.917-5.039-15.835-10.078-23.752-15.118c-12.312-7.836-25.23-13.012-40.184-13.863c-26.807-1.526-53.341,15.434-64.66,39.374
		c-3.071,6.496-6.142,12.992-9.214,19.488c-13.067,27.638-26.134,55.276-39.201,82.915c-17.385,36.77-34.769,73.54-52.153,110.311
		c-15.804,33.427-31.607,66.854-47.411,100.281c-8.249,17.447-16.46,34.911-24.745,52.34c-1.166-4.007-2.219-8.055-3.383-12.021
		c-4.441-15.125-8.881-30.249-13.322-45.374c-10.238-34.871-20.477-69.742-30.715-104.613c-2.379-8.104-4.759-16.208-7.138-24.312
		c-5.301-18.053-25.565-31.201-44.284-25.144c-18.306,5.924-30.826,24.93-25.144,44.284c13.615,46.374,27.23,92.747,40.846,139.12
		c5.158,17.566,10.092,35.217,15.477,52.715c3.588,11.656,9.579,22.937,18.576,31.358c12.954,12.125,28.492,18.104,46.001,19.473
		c13.165,1.029,28.951-3.142,39.854-10.542c10.122-6.871,19.045-15.569,24.491-26.682c15.305-31.229,29.745-62.914,44.609-94.354
		c26.935-56.971,53.87-113.942,80.805-170.913c16.261-34.395,32.367-68.867,48.786-103.187c0.27-0.564,0.549-1.121,0.836-1.674
		c2.821,1.71,5.56,3.588,8.309,5.338c9.06,5.766,18.119,11.532,27.178,17.299c29.876,19.015,59.752,38.031,89.627,57.046
		c35.238,22.428,70.476,44.857,105.715,67.285c27.75,17.662,55.499,35.324,83.249,52.986c7.201,4.583,14.403,9.167,21.604,13.75
		c17.485,11.129,38.135,15.949,58.548,10.266c37.375-10.406,59.099-49.871,48.612-87.027
		C3370.696,3857.901,3369.054,3852.518,3367.47,3847.122z"/>
	<path d="M1848.965,2129.967c0.305,0.688,0.862,1.732,1.106,2.538c0.045,0.087,0.09,0.173,0.135,0.26
		C1850.233,2130.172,1848.731,2128.725,1848.965,2129.967z"/>
	<path d="M2579.651,2131.313c-66.951,66.95-133.754,134.054-200.869,200.841c-72.993-72.993-145.986-145.986-218.979-218.979
		c-40.629-40.629-81.257-81.257-121.885-121.886c-39.669-39.668-96.255-57.63-151.184-43.72
		c-53.878,13.644-96.647,56.441-111.718,109.906c-7.549,26.78-5.995,56.186,1.619,82.792c7.936,27.732,23.141,51.073,43.401,71.332
		c81.932,81.932,163.864,163.864,245.796,245.796c40.992,40.992,81.984,81.984,122.976,122.976
		c20.057,20.057,40.114,40.114,60.171,60.171c18.004,18.004,35.618,36.887,58.922,48.099c45.562,21.921,97.336,21.898,142.747-0.466
		c22.937-11.296,40.347-30.013,58.16-47.827c20.464-20.464,40.927-40.927,61.391-61.39
		c81.476-81.476,162.952-162.951,244.427-244.427c81.865-81.866,163.731-163.731,245.596-245.596
		c81.867-81.867,163.734-163.734,245.601-245.601c40.257-40.257,81.152-79.92,120.779-120.8
		c38.404-39.62,53.784-98.676,38.128-151.735c-7.057-23.917-19.406-47.13-37.285-64.745c-0.552-0.583-1.123-1.156-1.732-1.706
		c-0.511-0.484-1.041-0.946-1.58-1.398c-17.713-15.7-36.907-27.756-59.139-36.129c-23.104-8.701-47.339-8.906-71.427-5.432
		c-20.747,2.992-41.311,10.035-59.183,21.103c-20.167,12.488-36.145,30.234-52.778,46.867
		c-66.903,66.904-133.807,133.807-200.71,200.711C2847.147,1863.817,2713.399,1997.565,2579.651,2131.313z M1891.464,2021.54
		c0.307-0.109,0.612-0.22,0.917-0.331C1890.567,2022.055,1886.171,2023.421,1891.464,2021.54z M1847.292,2067.846
		c-0.252,0.651-0.467,1.162-0.513,1.141C1846.753,2068.975,1846.961,2068.524,1847.292,2067.846z M2328.217,2617.099
		c-0.459-0.322-0.919-0.641-1.381-0.959C2323.322,2613.717,2326.715,2615.708,2328.217,2617.099z M3381.566,1664.996
		c-0.266,0.379-0.527,0.761-0.792,1.142C3377.612,1670.685,3380.726,1665.392,3381.566,1664.996z M3381.601,1664.98
		c0.028-0.009,0.053-0.013,0.074-0.008C3381.656,1664.967,3381.628,1664.974,3381.601,1664.98z M3187.042,1625.745
		c18.19-18.19,36.38-36.38,54.57-54.57c4.547-4.548,9.085-9.104,13.642-13.642c1.389-1.383,2.763-2.793,4.187-4.142
		c1.279-1.221,2.586-2.411,3.921-3.571c0.052-0.043,0.096-0.079,0.146-0.121c1.073-0.792,2.456-1.925,2.891-2.222
		c2.833-1.938,5.755-3.745,8.751-5.42c1.489-0.833,3.001-1.631,4.524-2.399c1.043-0.524,2.104-1.011,3.163-1.504
		c4.86-1.604,9.641-3.282,14.624-4.501c1.667-0.408,3.346-0.782,5.027-1.129c1.689-0.346,3.383-0.66,5.083-0.944
		c4.03-0.619,3.414-0.55-1.85,0.209c3.586-1.971,11.858-0.956,15.853-0.897c1.794,0.027,3.574,0.171,5.367,0.237
		c0.413,0.041,0.766,0.075,1.085,0.105c0.847,0.158,1.691,0.327,2.533,0.507c4.771,1.019,9.457,2.393,14.042,4.054
		c0.689,0.25,1.488,0.434,2.188,0.553c2.155,0.936,4.455,2.569,6.201,3.524c4.696,2.566,9.226,5.412,13.597,8.498
		c0.542,0.382,1.345,0.854,2.063,1.248c2.186,1.671,4.238,3.913,6.151,5.641c1.72,1.627,3.41,3.277,5.012,5.022
		c0.281,0.306,0.549,0.63,0.819,0.95c1.939,4.686,6.531,9.433,8.885,13.926c0.791,1.51,1.795,5.272,3.061,6.584
		c0.128,0.333,0.26,0.665,0.379,1c1.833,5.125,3.346,10.365,4.529,15.676c0.373,1.675,0.663,3.364,0.971,5.05
		c0.087,0.77,0.246,1.572,0.298,2.238c0.445,5.701,0.424,11.418-0.046,17.117c-0.042,0.506-0.173,1.157-0.279,1.813
		c-0.461,2.148-0.81,4.327-1.325,6.465c-0.418,1.738-5.298,14.408-5.127,16.038c-0.175,0.38-0.348,0.762-0.531,1.138
		c-1.336,2.739-2.781,5.424-4.316,8.056c-1.311,2.248-2.69,4.452-4.142,6.611c-0.462,0.687-0.939,1.361-1.414,2.038
		c-1.301,0.399-9.469,10.269-10.608,11.425c-4.89,4.965-9.778,9.931-14.683,14.88c-19.622,19.802-39.4,39.449-59.176,59.097
		c-78.178,77.671-155.933,155.771-233.858,233.696c-78.423,78.423-156.845,156.845-235.268,235.268
		c-77.787,77.787-155.574,155.574-233.362,233.362c-39.133,39.133-78.265,78.265-117.398,117.397
		c-9.474,9.474-18.948,18.948-28.421,28.421c-4.606,4.606-9.126,9.324-13.871,13.787c-1.484,1.396-3.077,2.676-4.584,4.043
		c-0.491,0.383-0.979,0.767-1.473,1.108c-3.712,2.561-7.58,4.903-11.567,7.012c-1.747,0.924-3.527,1.771-5.308,2.623
		c-0.371,0.125-0.833,0.285-1.429,0.499c-4.538,1.627-9.173,2.983-13.873,4.055c-2.069,0.472-4.153,0.845-6.234,1.248
		c-0.195,0.017-0.4,0.034-0.629,0.054c-4.419,0.394-8.856,0.551-13.293,0.47c-2.218-0.041-4.433-0.14-6.646-0.3
		c-0.823-0.059-1.644-0.136-2.465-0.207c-4.023-0.795-8.023-1.553-11.987-2.653c-2.144-0.595-4.27-1.249-6.378-1.961
		c-0.796-0.269-1.585-0.557-2.377-0.837c-3.432-1.766-7.019-3.25-10.376-5.196c-2.276-1.32-4.505-2.723-6.686-4.196
		c-0.427-0.288-0.847-0.586-1.269-0.882c-2.713-3.434-7.356-6.464-10.451-9.55c-4.887-4.873-9.76-9.76-14.639-14.639
		c-39.189-39.189-78.378-78.378-117.567-117.567c-78.129-78.129-156.258-156.258-234.387-234.387
		c-19.518-19.518-39.036-39.036-58.553-58.553c-9.731-9.731-19.797-19.225-29.182-29.292c-0.968-1.038-5.834-7.303-3.174-3.363
		c2.724,4.035-1.836-2.626-2.551-3.698c-2.871-4.302-5.292-8.8-7.649-13.385c-0.002,0.152-0.002,0.304-0.015,0.464
		c0.016-0.194-0.036-0.446-0.12-0.724c-0.146-0.285-0.296-0.567-0.442-0.854c-0.407-0.796-0.6-1.338-0.665-1.684
		c-0.052-0.118-0.1-0.229-0.134-0.323c-0.876-2.406-1.675-4.836-2.404-7.29c-1.593-5.367-2.732-10.805-3.753-16.303
		c-0.005-0.029-0.01-0.051-0.015-0.08c-0.013-0.2-0.027-0.418-0.045-0.667c-0.19-2.616-0.444-5.224-0.547-7.847
		c-0.106-2.698-0.12-5.401,0-8.099c0.055-1.248,0.225-2.51,0.264-3.759c1.136-5.192,2.353-10.3,4.107-15.328
		c0.33-0.945,0.697-1.879,1.047-2.817c1.122-2.274,3.218-6.336,3.484-6.822c2.565-4.694,5.413-9.227,8.498-13.597
		c0.103-0.146,0.438-0.694,0.825-1.298c0.223-0.238,0.488-0.53,0.839-0.934c1.994-2.296,3.936-4.629,6.032-6.835
		c1.636-1.722,3.336-3.373,5.107-4.955c0.453-0.404,1.556-1.099,2.229-1.729c3.841-2.531,7.652-5.028,11.755-7.177
		c1.511-0.791,5.275-1.796,6.586-3.063c0.729-0.267,1.458-0.537,2.192-0.792c5.135-1.781,10.379-3.255,15.696-4.385
		c1.905-0.405,4.094-0.52,6.047-0.98c0.405-0.041,0.809-0.084,1.213-0.111c5.306-0.357,10.631-0.298,15.931,0.139
		c0.487,0.04,0.896,0.071,1.262,0.098c0.196,0.045,0.41,0.093,0.666,0.148c2.543,0.547,5.092,1.027,7.616,1.663
		c2.53,0.638,5.042,1.357,7.527,2.153c1.257,0.403,6.918,2.654,6.753,2.439c1.177,0.562,2.383,1.139,2.8,1.348
		c2.335,1.172,4.631,2.414,6.888,3.73c2.248,1.311,4.452,2.69,6.611,4.142c0.951,0.639,1.884,1.302,2.822,1.957
		c0.058,0.059,0.114,0.116,0.183,0.186c8.893,8.809,17.989,17.452,26.851,26.315c19.291,19.291,38.582,38.582,57.872,57.872
		c78.434,78.434,156.869,156.869,235.303,235.303c18.731,18.731,37.462,37.462,56.193,56.193c13.787,13.786,37.081,13.725,50.912,0
		c131.021-130.02,261.125-260.976,391.647-391.498C2926.231,1886.557,3056.637,1756.151,3187.042,1625.745z"/>
	<path d="M2639.465,825.459c0.119-0.02,0.265-0.071,0.44-0.157c0.078-0.063,0.155-0.126,0.233-0.19
		C2639.858,825.286,2639.625,825.409,2639.465,825.459z"/>
	<path d="M2639.465,825.459c-0.055,0.009-0.124,0.034-0.165,0.027C2639.339,825.493,2639.398,825.48,2639.465,825.459z"/>
	<path d="M2640.445,824.862c-0.103,0.084-0.204,0.166-0.307,0.25C2642.586,823.593,2648.587,818.255,2640.445,824.862z"/>
	<path d="M3514.921,1306.22c-0.017,0.155-0.033,0.305-0.047,0.445C3514.889,1306.517,3514.906,1306.369,3514.921,1306.22z"/>
	<path d="M3862.533,2186.199c-14.03-34.418-34.822-65.152-62.616-90.025c-1.593-1.426-3.282-2.701-5.04-3.84
		c-0.731-0.612-1.477-1.213-2.246-1.79c10.5,7.875-3.449-4.488-6.011-7.192c-3.7-3.905-7.316-7.948-10.657-12.178
		c0.155,0.063-4.107-5.856-4.111-5.861c-1.336-1.968-2.642-3.959-3.91-5.972c-3.777-5.999-7.23-12.198-10.36-18.558
		c-0.099-0.201-2.949-6.507-2.983-6.375c-0.577-1.465-1.137-2.937-1.678-4.407c-2.015-5.469-3.779-11.031-5.315-16.653
		c-1.531-5.607-2.809-11.284-3.855-17.001c-0.095-0.522-1.055-7.955-0.99-6.769c-0.257-2.613-0.489-5.228-0.647-7.85
		c-0.651-10.763-0.393-21.546,0.633-32.273c0.099-0.656,0.519-4.085,0.7-5.128c0.5-2.885,1.055-5.759,1.681-8.621
		c1.509-6.901,3.375-13.731,5.605-20.434c0.749-2.25,1.609-4.46,2.358-6.709c0.353-1.061,0.604-1.845,0.779-2.425
		c0.264-0.535,0.606-1.253,1.046-2.2c2.538-5.471,5.231-10.854,8.208-16.102c5.917-10.428,13.203-19.801,19.903-29.698
		c52.673-77.819,52.218-185.405-0.156-263.282c-27.958-41.572-66.836-72.445-113.347-90.829c-9.199-3.636-18.59-6.499-28.153-8.997
		c-5.835-1.524-11.618-3.098-17.333-5.037c-2.816-0.955-5.6-1.988-8.375-3.055c-0.335-0.133-0.613-0.244-0.847-0.336
		c-1.719-0.771-3.434-1.548-5.131-2.366c-10.502-5.079-20.232-11.201-29.866-17.737c-0.495-0.336-0.898-0.61-1.263-0.859
		c-2.582-2.044-5.099-4.18-7.563-6.363c-5.116-4.533-10.009-9.317-14.645-14.339c-1.541-1.67-3.054-3.368-4.54-5.087
		c-0.216-0.25-4.525-5.593-4.343-5.234c-2.901-3.916-5.631-7.969-8.223-12.09c-3.02-4.802-5.84-9.731-8.449-14.769
		c-1.044-2.017-2.054-4.054-3.032-6.103c-0.682-1.433-1.325-2.883-1.973-4.331c-0.103-0.269-0.256-0.656-0.463-1.177
		c-4.049-10.74-7.338-21.678-9.605-32.938c-0.392-1.949-0.744-3.904-1.081-5.862c-0.045-0.452-0.578-4.071-0.684-5.176
		c-0.613-6.416-0.924-12.857-0.92-19.302c0.004-5.941,0.27-11.882,0.794-17.8c0.03-0.338,1.443-12.066,0.5-4.786
		c0.406-3.14,0.707-5.462,0.924-7.147c1.512-13.906,3.331-27.429,2.908-41.536c-0.766-25.599-5.402-51.678-14.677-75.594
		c-44.039-113.548-163.879-177.314-282.638-148.764c-3.565,0.856-7.135,1.68-10.736,2.376c-2.203,0.426-4.417,0.812-6.634,1.165
		c-8.23,0.896-16.497,1.319-24.777,1.214c-3.523-0.044-7.042-0.181-10.558-0.411c-1.125-0.073-5.411-0.449-7.179-0.581
		c-1.371-0.197-3.585-0.501-4.071-0.584c-1.714-0.293-3.426-0.6-5.132-0.937c-3.97-0.784-7.914-1.695-11.83-2.715
		c-7.261-1.893-14.325-4.292-21.374-6.848c-1.103-0.4-1.746-0.618-2.103-0.726c-0.324-0.179-0.93-0.49-1.992-1.005
		c-4.133-2.004-8.262-3.99-12.292-6.201c-6.037-3.311-11.913-6.922-17.586-10.823c-1.797-1.236-3.571-2.507-5.328-3.799
		c-3.074-2.489-6.085-5.055-9.01-7.718c-5.564-5.065-10.84-10.444-15.805-16.097c-0.827-0.942-3.591-4.254-4.681-5.53
		c-0.793-1.083-2.435-3.278-2.705-3.66c-1.36-1.918-2.684-3.859-3.975-5.823c-4.235-6.444-8.107-13.128-11.577-20.015
		c-1.379-2.737-2.716-5.506-3.959-8.311c-0.107-0.292-0.259-0.697-0.479-1.281c-0.45-1.134-0.879-2.275-1.289-3.424
		c-0.778-2.712-0.974-2.27-0.589,1.326c0.002,0.161,0.004,0.322,0.007,0.483c-0.159-2.963-0.753-5.823-1.793-8.577
		c-0.453-1.578-1.096-3.139-1.668-4.677c-1.141-3.072-2.384-6.1-3.635-9.127c-3.647-8.823-7.451-17.564-12.004-25.963
		c-7.424-13.697-16.59-26.281-26.418-38.344c-75.899-93.162-221.653-112.294-318.974-41.926c-3.438,2.486-6.782,5.097-10.134,7.697
		c-1.126,0.874-8.279,7.736-10.657,8.903c-2.005,1.628-3.984,3.236-5.972,4.884c-1.46,1.211-2.895,2.449-4.373,3.638
		c-0.212,0.171-0.39,0.315-0.555,0.448c-0.263,0.182-0.625,0.436-1.118,0.789c-6.543,4.677-13.29,9.035-20.323,12.941
		c-3.203,1.779-6.457,3.471-9.751,5.073c-1.798,0.874-3.619,1.728-5.45,2.544c-0.618,0.248-1.82,0.733-2.636,1.025
		c-7.37,2.638-14.745,5.095-22.345,7.005c-3.479,0.874-6.979,1.655-10.5,2.343c-1.537,0.3-9.136,1.395-8.008,1.345
		c-7.134,0.74-14.295,1.145-21.469,1.143c-4.161-0.001-8.322-0.118-12.475-0.377c-1.779-0.111-7.491-0.646-9.186-0.776
		c-1.007-0.151-2.41-0.355-2.514-0.374c-1.759-0.326-3.52-0.624-5.275-0.967c-4.101-0.802-8.178-1.723-12.222-2.776
		c-7.612-1.984-15.143-4.404-22.465-7.293c-0.007-0.069-5.119-2.297-6.128-2.786c-3.283-1.592-6.523-3.277-9.716-5.042
		c-7.193-3.978-14.146-8.421-20.793-13.26c0.306,0.154-4.615-3.69-5.41-4.37c-4.061-3.474-7.991-7.037-12.09-10.457
		c-1.703-1.421-2.572-2.142-2.919-2.428c1.101,0.902,6.508,5.293,0.47-0.352c-3.171-2.965-6.628-5.644-10.034-8.33
		c-12.398-9.778-25.165-18.8-39.238-26.02c-110.011-56.441-249.35-18.565-314.005,87.433c-3.334,5.465-6.408,11.093-9.214,16.848
		c-2.113,4.334-4.009,8.753-5.892,13.19c-0.981,2.312-2.002,4.637-2.943,6.973c-4.55,9.162-3.258,9.279-8.551,19.558
		c-3.815,7.409-8.084,14.576-12.784,21.458c-0.809,1.184-3.901,5.429-4.534,6.348c-0.891,1.01-5.082,5.99-6.08,7.105
		c-5.026,5.615-10.373,10.943-15.995,15.961c-2.577,2.301-5.2,4.567-7.906,6.719c0.451-0.422-4.142,2.919-5.189,3.637
		c-6.627,4.544-13.528,8.696-20.646,12.425c-3.052,1.599-6.161,3.065-9.265,4.558c-0.075,0.036-0.875,0.385-1.649,0.726
		c-1.245,0.479-3.601,1.412-4.061,1.583c-7.01,2.605-14.162,4.824-21.416,6.645c-3.92,0.984-7.871,1.838-11.843,2.583
		c-1.146,0.215-5.63,0.887-7.226,1.156c-0.933,0.086-2.032,0.192-2.155,0.198c-2.327,0.119-4.65,0.382-6.977,0.512
		c-4.094,0.229-8.195,0.326-12.295,0.304c-7.034-0.036-14.106-0.402-21.1-1.219c-0.052-0.076-5.304-0.907-6.575-1.152
		c-4.774-0.921-9.51-2.027-14.21-3.273c-15.939-4.224-31.718-7.397-48.162-9.169c-134.689-14.512-255.374,97.212-259.584,230.516
		c-0.477,15.101,1.74,29.797,2.671,44.806c0.478,7.704,0.526,15.434,0.123,23.143c-0.184,3.514-0.504,7.013-0.826,10.517
		c-0.009,0.097-0.094,0.752-0.187,1.469c-0.263,1.308-1.127,6.371-1.093,6.199c-1.312,6.781-2.974,13.5-4.974,20.11
		c-1.16,3.834-2.441,7.63-3.827,11.388c-0.552,1.496-1.125,2.983-1.706,4.469c-0.158,0.362-0.337,0.758-0.528,1.16
		c-3.171,6.682-6.514,13.248-10.308,19.602c-1.745,2.923-3.563,5.8-5.452,8.632c-0.944,1.415-1.901,2.822-2.88,4.214
		c-0.295,0.419-2.653,3.543-3.571,4.798c-1.139,1.322-3.756,4.431-4.498,5.273c-2.253,2.558-4.568,5.057-6.947,7.498
		c-5.559,5.706-11.455,11.05-17.628,16.082c-1.689,1.246-3.394,2.472-5.121,3.664c-2.84,1.96-5.733,3.848-8.67,5.659
		c-6.927,4.272-14.122,7.993-21.458,11.505c-1.17,0.56-1.79,0.876-2.094,1.045c-0.319,0.087-0.994,0.306-2.295,0.767
		c-3.351,1.189-6.677,2.427-10.066,3.51c-6.884,2.199-13.866,3.913-20.916,5.479c-16.593,3.686-32.174,9.076-47.774,15.839
		c-111.111,48.17-169.186,184.311-126.456,297.848c5.858,15.564,12.811,30.804,21.645,44.917
		c7.657,12.232,15.875,23.861,22.123,36.945c0.736,1.541,1.456,3.099,2.152,4.664c0.079,0.238,0.256,0.73,0.589,1.624
		c1.247,3.347,2.456,6.7,3.551,10.101c2.531,7.861,4.575,15.872,6.124,23.984c0.22,1.152,0.91,5.563,1.197,7.234
		c0.096,0.964,0.225,2.18,0.233,2.303c0.16,2.328,0.395,4.647,0.53,6.976c0.438,7.549,0.456,15.119,0.056,22.67
		c-0.178,3.36-0.468,6.707-0.801,10.053c0.002-0.478-0.685,4.824-0.956,6.304c-1.466,8-3.413,15.917-5.826,23.684
		c-1.037,3.337-2.162,6.648-3.367,9.927c-0.583,1.585-1.19,3.168-1.816,4.74c-0.129,0.266-0.312,0.653-0.583,1.231
		c-3.244,6.927-6.763,13.701-10.726,20.246c-2.148,3.548-4.411,7.024-6.774,10.432c-1.017,1.468-2.054,2.92-3.103,4.365
		c0.456-0.628,2.729-3.407,0.16-0.18c-5.273,6.626-11.04,12.875-17.13,18.757c-2.637,2.547-5.626,4.835-8.164,7.468
		c-0.476,0.494-0.78,0.832-0.963,1.06c-1.969,1.563-3.942,3.069-5.867,4.683c-5.869,4.921-11.442,10.234-16.704,15.796
		c-85.58,90.457-85.917,235.358-1.748,326.835c10.646,11.571,22.737,21.543,35.363,30.874c8.821,6.519,19.757,14.736,31.042,19.145
		c5.237,2.875,10.377,5.907,15.359,9.216c2.582,1.714,5.12,3.498,7.62,5.332c-0.809-0.515,5.071,4.172,6.141,5.105
		c5.246,4.577,10.251,9.422,14.995,14.517c2.354,2.528,4.642,5.115,6.863,7.761c0.87,1.036,1.725,2.085,2.574,3.138
		c0.352,0.473,0.841,1.141,1.285,1.788c3.879,5.648,7.678,11.307,11.089,17.256c1.696,2.958,3.318,5.96,4.863,8.999
		c0.772,1.518,1.518,3.05,2.251,4.587c0.152,0.318,1.12,2.434,1.671,3.609c0.576,1.526,2.167,5.557,2.553,6.631
		c1.15,3.203,2.22,6.433,3.208,9.689c2.143,7.062,3.91,14.239,5.274,21.492c0.288,1.531,1.007,6.501,1.022,6.162
		c0.287,2.66,0.537,5.325,0.719,7.993c0.505,7.44,0.592,14.908,0.271,22.358c-0.149,3.462-0.387,6.918-0.714,10.368
		c-0.105,1.104-0.217,2.209-0.338,3.312c-0.047,0.253-0.101,0.55-0.172,0.945c-1.355,7.536-2.911,14.997-5.009,22.366
		c-0.863,3.031-8.138,18.232-6.989,20.383c-0.192-0.359,5.347-12.691,0.425-0.938c-1.055,2.52-2.151,5.031-3.167,7.568
		c-1.517,3.788-2.941,7.61-4.246,11.476c-5.219,15.455-8.163,31.284-10.176,47.444c-14.778,118.639,69.548,236.369,187.016,259.87
		c16.063,3.213,32.536,5.066,48.917,5.25c5.955,0.067,11.89,0.151,17.833,0.601c1.209,0.092,5.893,0.596,7.472,0.736
		c0.93,0.151,2.035,0.325,2.151,0.348c2.279,0.445,4.567,0.83,6.841,1.304c6.757,1.409,13.446,3.166,20.022,5.261
		c3.265,1.04,6.467,2.242,9.703,3.365c0.099,0.034,1.107,0.423,1.966,0.75c1.196,0.527,3.241,1.408,3.559,1.555
		c12.151,5.651,23.833,12.5,34.603,20.495c-0.141-0.037,3.775,3.093,4.778,3.955c2.977,2.557,5.875,5.205,8.7,7.93
		c5.27,5.084,10.043,10.541,14.906,16.001c0.772,0.867,1.229,1.355,1.486,1.61c0.203,0.321,0.566,0.86,1.184,1.738
		c1.946,2.766,3.911,5.513,5.763,8.344c4.029,6.157,7.715,12.537,11.049,19.095c1.48,2.913,2.882,5.863,4.221,8.843
		c0.583,1.51,1.165,3.018,1.721,4.538c2.588,7.064,4.786,14.271,6.569,21.58c0.833,3.413,1.577,6.851,2.231,10.303
		c0.277,1.463,1.192,7.681,1.067,6.229c0.78,6.805,1.354,13.621,2.263,20.417c15.843,118.417,121.318,210.098,241.482,207.069
		c30.469-0.768,59.948-7.507,87.925-19.361c8.238-3.491,15.956-7.042,23.366-11.998c0.731-0.489,1.348-0.905,1.88-1.264
		c-1.305,0.996-2.557,2.09-2.292,2.407c0.082,0.098,4.526-2.213,4.879-2.38c1.221-0.578,2.447-1.146,3.679-1.7
		c0.584-0.237,1.694-0.686,2.554-0.994c6.658-2.385,13.316-4.662,20.161-6.468c3.377-0.891,6.78-1.695,10.198-2.409
		c1.702-0.355,3.41-0.682,5.121-0.993c0.351-0.064,2.552-0.425,3.875-0.654c1.696-0.16,6.005-0.632,7.115-0.718
		c3.427-0.265,6.857-0.442,10.293-0.532c7.409-0.194,14.829,0.013,22.215,0.632c1.614,0.135,6.81,0.821,6.163,0.671
		c2.629,0.431,5.253,0.891,7.863,1.423c7.224,1.471,14.367,3.341,21.389,5.586c3.243,1.037,6.458,2.154,9.646,3.353
		c1.164,0.438,2.321,0.895,3.478,1.352c0.156,0.073,0.318,0.149,0.513,0.24c6.72,3.142,13.313,6.488,19.693,10.281
		c5.418,3.221,10.675,6.712,15.771,10.422c-0.446-0.264,3.988,3.195,4.954,4.021c3.094,2.645,6.102,5.389,9.029,8.216
		c12.327,11.904,16.94,17.922,24.715,29.925c-0.04-0.148-0.08-0.297-0.12-0.445c5.03,9.884,13.07,18.992,19.406,26.793
		c7.482,9.21,15.674,17.814,24.625,25.609c20.648,17.981,43.141,31.729,68.369,42.181c44.528,18.448,93.966,21.892,141.023,12.175
		c47.986-9.91,93.688-36.465,126.051-73.247c19.229-21.854,25.481-36.259,46.139-55.105c2.613-2.383,5.311-4.655,8.02-6.927
		c5.484-4.599,2.294-1.749,1.038-0.83c5.632-4.121,11.457-7.969,17.478-11.497c4.984-2.92,10.094-5.627,15.31-8.11
		c-0.399,0.19,3.908-1.69,5.637-2.481c2.073-0.737,7.171-2.626,8.141-2.954c6.524-2.201,13.162-4.072,19.875-5.602
		c3.36-0.765,6.754-1.322,10.123-2.038c0.973-0.207,1.625-0.358,2.044-0.468c0.487-0.031,1.141-0.082,2.027-0.161
		c13.889-1.236,27.546-1.261,41.447-0.138c0.897,0.073,1.588,0.122,2.138,0.155c0.543,0.114,1.227,0.251,2.116,0.42
		c3.451,0.655,6.891,1.267,10.32,2.033c6.903,1.542,13.724,3.46,20.425,5.725c2.757,0.932,5.494,1.935,8.208,2.989
		c0.026,0.08,5.642,2.499,6.472,2.9c4.513,2.181,8.858,4.755,13.332,6.94c-0.13-0.035-0.261-0.071-0.392-0.106
		c88.721,50.031,197.26,38.884,275.088-26.17c36.718-30.691,63.48-74.415,75.174-120.735c6.841-27.099,5.179-41.157,14.189-67.773
		c0.741-2.19,1.569-4.345,2.335-6.526c0.344-0.98,0.596-1.723,0.774-2.275c0.24-0.478,0.531-1.073,0.898-1.841
		c2.461-5.146,4.957-10.252,7.763-15.222c2.783-4.929,5.774-9.741,8.961-14.419c1.271-1.866,2.594-3.691,3.904-5.53
		c2.506-3.369,2.691-3.616,0.555-0.741c1.417-1.747,2.862-3.469,4.335-5.167c7.401-8.53,15.547-16.095,24.056-23.488
		c0.343-0.298,1.378-1.103,2.077-1.646c2.238-1.645,4.507-3.25,6.812-4.798c5.133-3.449,10.424-6.656,15.85-9.623
		c4.949-2.706,10.002-5.229,15.171-7.489c0.268-0.117,0.481-0.213,0.671-0.299c0.483-0.156,1.054-0.343,1.74-0.571
		c2.698-0.896,5.35-1.928,8.054-2.811c5.441-1.776,10.949-3.318,16.521-4.625c2.805-0.658,5.62-1.262,8.451-1.799
		c1.202-0.228,6.757-1.061,6.429-1.083c25.906-2.899,51.739-0.368,77.715-4.401c25.028-3.886,49.231-12.442,71.654-24.182
		c92.28-48.314,140.827-154.44,122.427-255.829c-2.601-14.334-6.977-27.881-12.208-41.437c-0.013-0.033-0.023-0.058-0.035-0.091
		c-0.132-0.57-0.332-1.356-0.624-2.436c-0.938-3.462-2.244-6.843-3.227-10.3c-1.949-6.853-3.309-13.783-4.742-20.751
		c-0.186-0.904-0.336-1.596-0.46-2.142c-0.037-0.555-0.091-1.258-0.171-2.172c-0.305-3.471-0.619-6.926-0.798-10.407
		c-0.355-6.897-0.343-13.819,0.017-20.717c0.149-2.859,0.367-5.713,0.637-8.563c0.089-0.991,0.208-1.978,0.316-2.967
		c0.092-0.554,0.234-1.458,0.43-2.73c1.312-6.707,2.653-13.367,4.488-19.959c4.068-14.612,6.487-20.189,11.184-29.388
		c3.101-6.073,6.511-11.987,10.202-17.721c1.853-2.878,3.846-5.648,5.773-8.475c0.614-0.9,0.986-1.473,1.199-1.824
		c0.332-0.358,0.825-0.91,1.549-1.747c8.68-10.028,17.8-19.584,28.149-27.906c0.667-0.493,2.215-1.664,2.601-1.926
		c3.924-2.656,7.785-5.366,11.826-7.848c4.589-2.82,9.294-5.417,14.081-7.869c12.425-4.224,25.044-13.057,34.607-19.754
		c13.632-9.547,26.711-20.163,38.14-32.289c21.842-23.173,37.999-49.895,49.645-79.414
		C3884.827,2304.451,3884.565,2240.248,3862.533,2186.199z M3578.228,1465.417
		C3575.373,1463.467,3576.975,1464.509,3578.228,1465.417L3578.228,1465.417z M3381.693,1136.496
		C3382.871,1137.3,3382.451,1137.023,3381.693,1136.496L3381.693,1136.496z M3079.926,1007.914
		C3080.755,1008.576,3081.525,1009.205,3079.926,1007.914L3079.926,1007.914z M2694.426,872.79c0.23-0.172,0.467-0.336,0.698-0.508
		C2694.313,872.913,2691.378,875.067,2694.426,872.79z M2348.946,862.335C2346.581,860.595,2347.214,860.912,2348.946,862.335
		L2348.946,862.335z M1507.373,1356.51C1508.287,1354.191,1508.032,1354.994,1507.373,1356.51L1507.373,1356.51z M1700.59,3091.924
		c0.016,0.035,0.032,0.069,0.048,0.104C1702.032,3095.148,1701.105,3093.113,1700.59,3091.924z M2019.806,3276.674
		c0.028-0.055,0.064-0.111,0.104-0.168C2019.877,3276.562,2019.835,3276.618,2019.806,3276.674z M2350.211,3366.311
		C2351.157,3367.495,2353.46,3370.923,2350.211,3366.311L2350.211,3366.311z M2546.491,3418.167
		C2545.8,3418.45,2545.505,3418.564,2546.491,3418.167L2546.491,3418.167z M3120.92,3273.586
		C3116.098,3277.628,3119.653,3274.538,3120.92,3273.586L3120.92,3273.586z M3807.152,2277.964
		c-0.09,3.973-0.295,7.943-0.615,11.904c-0.051,0.63-0.565,4.987-0.794,7.155c-0.4,2.214-1.091,6.275-1.208,6.865
		c-0.775,3.897-1.664,7.772-2.663,11.618c-2.011,7.736-4.636,15.204-7.341,22.714c-0.131,0.326-0.247,0.613-0.355,0.882
		c-0.64,1.427-1.282,2.852-1.955,4.264c-1.292,2.711-2.645,5.395-4.057,8.046c-3.787,7.11-8,13.993-12.613,20.597
		c-0.967,1.384-1.961,2.748-2.963,4.106c-0.184,0.23-0.38,0.475-0.603,0.754c-2.673,3.109-5.284,6.253-8.075,9.26
		c-4.937,5.32-10.167,10.37-15.655,15.12c-0.943,0.816-9.128,7.058-6.566,5.298c-2.991,2.134-5.996,4.24-9.089,6.229
		c-6.092,3.917-12.399,7.44-18.846,10.716c-9.366,3.455-18.566,9.442-26.18,14.306c-12.405,7.925-24.26,17.079-35.111,27.022
		c-18.957,17.371-35.353,38.646-47.424,61.343c-25.616,48.162-33.594,102.188-24.76,155.812c1.933,11.736,4.904,23.279,8.857,34.496
		c1.624,4.606,3.31,9.386,5.501,13.717c-5.283-10.445-1.664-3.304-0.615-0.172c2.045,6.109,3.815,12.306,5.281,18.579
		c1.083,4.632,2.024,9.311,2.764,14.015c-0.12-0.306,0.602,6.131,0.648,6.733c0.172,2.226,0.307,4.459,0.405,6.69
		c0.241,5.53,0.251,11.07,0.031,16.601c-0.132,3.289-0.345,6.575-0.639,9.854c-0.063,0.71-1.055,7.416-0.809,6.257
		c-1.73,9.694-3.999,19.25-7.067,28.624c-1.003,3.063-2.174,6.06-3.222,9.105c-0.172,0.499-0.645,1.664-0.963,2.446
		c-2.3,5.146-4.833,10.198-7.559,15.128c-2.582,4.669-5.347,9.24-8.284,13.694c-1.469,2.228-3.024,4.392-4.538,6.589
		c-0.511,0.741-1.979,2.613-2.631,3.451c-6.997,8.457-14.579,16.402-22.818,23.666c-1.609,1.418-3.275,2.764-4.888,4.175
		c-0.585,0.512-1.039,0.916-1.403,1.248c-0.401,0.266-0.886,0.595-1.493,1.014c-4.442,3.067-8.841,6.147-13.456,8.96
		c-4.63,2.821-9.376,5.456-14.22,7.892c-1.95,0.98-3.937,1.874-5.891,2.843c-0.771,0.342-1.385,0.616-1.858,0.828
		c-1.578,0.623-3.157,1.244-4.75,1.826c-10.498,3.837-21.321,6.785-32.313,8.812c-1.416,0.261-2.837,0.502-4.26,0.733
		c1.803-0.336-6.069,0.638-6.642,0.684c-6.451,0.521-12.923,0.727-19.394,0.644c-52.3-0.669-103.505,10.624-147.026,40.923
		c-44.317,30.854-77.395,74.514-93.867,126.086c-3.592,11.246-6.069,22.733-7.767,34.406c-0.483,3.319-0.865,6.653-1.303,9.979
		c-0.107,0.543-0.636,3.903-0.599,3.712c-1.172,6.025-2.297,12.026-3.85,17.972c-1.379,5.282-2.967,10.502-4.768,15.655
		c-0.607,1.737-1.251,3.457-1.902,5.176c-0.366,0.925-1.283,3.236-1.699,4.102c-4.795,9.971-10.046,19.595-16.291,28.744
		c-1.202,1.761-2.442,3.497-3.7,5.219c0.043-0.164-3.472,4.274-3.864,4.732c-4.002,4.68-8.222,9.177-12.635,13.471
		c-4.404,4.285-9.038,8.264-13.743,12.21c-0.028,0.023-0.047,0.039-0.074,0.062c-2.861,2.053-5.715,4.1-8.653,6.043
		c-8.844,5.848-18.127,10.948-27.743,15.393c0.211-0.15-4.922,2.021-5.725,2.319c-2.863,1.06-5.75,2.056-8.657,2.987
		c-5.825,1.865-11.735,3.469-17.703,4.804c-1.993,0.446-3.995,0.862-6.001,1.248c-1.493,0.287-12.108,1.627-7.722,1.241
		c-4.934,0.473-9.865,0.864-14.826,1.01c-5.7,0.168-11.405,0.098-17.098-0.222c-3.131-0.176-6.24-0.507-9.365-0.75
		c-0.558-0.043-1.02-0.075-1.42-0.101c-0.415-0.09-0.91-0.193-1.508-0.313c-12.783-2.562-24.913-5.925-37.269-10.064
		c-0.685-0.229-1.242-0.416-1.701-0.57c-3.733-1.61-7.405-3.39-11.021-5.241c-3.296-1.687-6.478-3.486-9.715-5.076
		c0.242,0.065,0.485,0.131,0.728,0.197c-95.155-53.549-218.9-37.115-293.646,43.978c-8.647,9.381-16.34,19.632-23.725,30.018
		c-1.747,2.458-3.452,4.946-5.275,7.349c-0.339,0.376-0.752,0.834-1.274,1.414c-4.397,4.878-8.63,9.818-13.319,14.429
		c-3.83,3.767-7.906,7.19-11.884,10.789c-0.476,0.43-0.851,0.77-1.18,1.068c-2.171,1.642-4.39,3.228-6.631,4.768
		c-9.447,6.488-19.41,11.769-29.665,16.829c-0.318,0.157-0.861,0.394-1.405,0.624c-2.334,0.917-4.676,1.811-7.042,2.645
		c-4.793,1.689-9.651,3.197-14.558,4.52c-4.402,1.187-8.844,2.22-13.316,3.109c-2.481,0.493-4.976,0.89-7.464,1.346
		c-0.408,0.075-0.75,0.14-1.06,0.199c-0.361,0.016-0.809,0.041-1.387,0.08c-10.114,0.679-20.074,1.277-30.223,0.799
		c-3.832-0.18-7.653-0.484-11.466-0.874c0.972,0.065-4.968-0.728-6.017-0.918c-2.983-0.542-5.957-1.15-8.913-1.824
		c-5.927-1.351-11.796-2.967-17.578-4.843c-1.932-0.627-3.857-1.284-5.769-1.969c-1.258-0.45-10.184-4.286-7.718-3.07
		c-9.549-4.507-18.78-9.52-27.573-15.406c-1.948-1.304-3.857-2.66-5.758-4.028c1.933,1.353-4.005-3.131-4.517-3.563
		c-4.886-4.12-9.576-8.478-14.046-13.046c-4.552-4.652-8.851-9.536-12.956-14.587c-0.148-0.211-0.292-0.415-0.465-0.66
		c-2.516-3.582-4.999-7.163-7.382-10.833c-6.173-12.549-17.171-24.288-25.235-33.388c-10.983-12.396-23.506-22.941-36.724-32.87
		c-24.609-18.485-53.9-31.936-83.827-39.079c-32.799-7.828-65.877-8.329-99.031-2.882c-15.055,2.473-29.744,6.692-43.874,12.435
		c-8.285,3.367-17.189,6.649-24.952,11.196c-1.185,0.694-3.213,1.784-5.06,2.997c-0.235,0.011-0.607,0.071-1.16,0.193
		c-1.446,0.319-9.153,4.145-6.652,3.22c-12.696,5.214-26.1,8.97-39.591,11.384c-2.018,0.361-6.819,0.912-5.517,0.8
		c-2.351,0.232-4.702,0.453-7.06,0.607c-6.802,0.442-13.627,0.527-20.439,0.27c-3.122-0.118-6.239-0.309-9.352-0.573
		c-0.868-0.073-4.403-0.497-6.135-0.683c-2.077-0.389-6.553-1.172-7.337-1.331c-3.534-0.717-7.048-1.534-10.538-2.438
		c-5.97-1.546-11.865-3.363-17.671-5.442c-0.809-0.29-4.092-1.554-5.702-2.155c-1.63-0.762-5.826-2.647-6.935-3.192
		c-5.517-2.708-10.916-5.664-16.169-8.854c-3.066-1.862-6.08-3.809-9.044-5.828c-1.412-0.962-6.128-4.402-5.75-4.022
		c-9.446-7.509-18.177-16.001-26.081-25.099c-0.586-0.674-2.894-3.462-3.993-4.76c-0.951-1.322-3.231-4.398-3.763-5.164
		c-4.19-6.033-8.04-12.298-11.535-18.759c-1.513-2.795-2.957-5.625-4.334-8.49c-0.432-0.899-2.072-4.652-2.728-6.085
		c-0.588-1.64-1.917-5.22-2.231-6.119c-1.253-3.599-2.41-7.233-3.456-10.897c-1.825-6.392-3.334-12.878-4.527-19.417
		c-0.298-1.636-0.573-3.279-0.831-4.923c-0.019-0.189-0.039-0.399-0.064-0.646c-0.29-2.907-0.525-5.822-0.824-8.728
		c-1.719-16.651-4.365-33.211-9.314-49.227c-9.819-31.78-25.998-60.318-47.257-85.769c-41.372-49.531-103.465-78.639-167.38-82.923
		c-6.53-0.438-13.055-0.371-19.592-0.515c-3.493-0.077-6.981-0.241-10.466-0.493c-1.614-0.117-8.432-0.889-7.861-0.727
		c-13.044-2.041-25.742-5.556-38.173-9.984c-1.253-0.446-2.491-0.933-3.729-1.421c-3.336-1.525-6.651-3.084-9.91-4.77
		c-6.167-3.188-12.163-6.705-17.965-10.518c-2.665-1.751-5.241-3.616-7.857-5.435c-0.209-0.146-0.391-0.271-0.547-0.379
		c-0.734-0.591-1.474-1.173-2.194-1.778c-5.246-4.417-10.33-8.997-15.146-13.883c-4.746-4.815-9.181-9.894-13.475-15.111
		c-0.718-0.973-1.435-1.947-2.123-2.942c-2.09-3.022-4.174-6.042-6.137-9.15c-3.364-5.324-6.486-10.805-9.348-16.415
		c-1.434-2.811-2.744-5.674-4.102-8.521c-0.05-0.105-0.202-0.459-0.383-0.883c-0.407-1.08-1.26-3.277-1.394-3.653
		c-4.555-12.773-8.02-25.691-10.222-39.066c-0.14-1.333-0.292-2.665-0.389-4.001c-0.233-3.219-0.485-6.43-0.611-9.656
		c-0.274-7.051-0.179-14.116,0.298-21.157c0.085-1.256,0.618-6.457,0.778-8.337c0.306-1.709,0.973-5.758,1.166-6.749
		c1.406-7.229,3.202-14.382,5.383-21.416c1.027-3.312,2.138-6.6,3.329-9.856c1.85-5.056,3.608-8.812,0.245-1.22
		c3.935-8.885,7.559-17.943,10.466-27.219c9.386-29.949,12.681-62.649,9.118-93.84c-7.688-67.304-41.242-126.805-95.291-167.742
		c-9.41-7.127-21.339-16.409-33.611-21.126c-5.129-2.815-10.162-5.784-15.053-9.01c-2.705-1.784-5.327-3.675-7.978-5.537
		c-0.212-0.149-0.395-0.277-0.553-0.387c-1.164-0.939-2.32-1.889-3.462-2.854c-9.641-8.146-18.602-17.222-26.491-27.093
		c-0.002-0.086-2.245-3.136-3.194-4.509c-2.015-2.915-3.948-5.885-5.804-8.903c-3.425-5.571-6.586-11.303-9.454-17.181
		c-0.921-1.887-1.803-3.795-2.665-5.711c0.239,0.398-1.793-4.647-2.423-6.412c-2.174-6.096-4.068-12.291-5.657-18.565
		c-1.558-6.153-2.483-12.399-3.781-18.596c-0.101-0.877-0.203-1.754-0.276-2.635c-0.286-3.465-0.583-6.924-0.741-10.399
		c-0.292-6.453-0.276-12.919,0.041-19.371c0.146-2.984,0.402-5.955,0.634-8.933c0.074-0.947,0.186-1.891,0.292-2.835
		c-0.241,1.87-0.485,2.296,0.087-0.85c0.026-0.258,0.059-0.515,0.079-0.773c-0.017,0.227-0.037,0.442-0.057,0.652
		c2.358-12.879,5.34-25.47,9.873-37.778c0.523-1.418,1.091-2.819,1.621-4.234c1.27-2.719,2.518-5.443,3.872-8.123
		c3.019-5.976,6.334-11.803,9.94-17.445c1.967-3.078,4.045-6.075,6.153-9.058c0.54-0.764,1.106-1.51,1.663-2.262
		c0.12-0.14,0.257-0.298,0.417-0.485c4.549-5.314,9.113-10.558,14.084-15.49c2.727-2.706,5.625-5.221,8.398-7.873
		c1.226-1.172,1.961-1.906,2.367-2.342c0.111-0.088,0.208-0.164,0.326-0.258c6.996-5.569,13.697-11.359,19.969-17.745
		c24.472-24.915,42.551-54.827,54.583-87.501c23.473-63.737,16.279-137.252-16.585-196.317
		c-6.808-12.236-15.382-23.337-22.136-35.609c-1.573-2.858-3.08-5.75-4.517-8.679c-0.426-0.869-2.061-4.445-2.784-5.973
		c-0.585-1.556-2.001-5.17-2.323-6.066c-1.419-3.954-2.712-7.949-3.879-11.984c-1.729-5.979-3.175-12.035-4.336-18.15
		c-0.165-0.87-0.758-4.579-1.042-6.212c-0.114-1.004-0.235-2.074-0.268-2.479c-0.167-2.031-0.355-4.058-0.486-6.093
		c-0.391-6.071-0.505-12.156-0.344-18.238c0.094-3.531,0.275-7.059,0.553-10.58c0.091-1.147,0.603-5.52,0.79-7.366
		c0.316-1.768,0.819-4.714,0.963-5.464c0.568-2.954,1.202-5.894,1.9-8.821c1.626-6.819,3.602-13.551,5.916-20.168
		c0.935-2.673,1.955-5.308,2.972-7.949c0.434-0.971,0.868-1.943,1.334-2.899c3.079-6.313,6.269-12.528,9.887-18.552
		c3.107-5.173,6.497-10.13,9.974-15.057c0.222-0.315,0.382-0.543,0.513-0.733c0.731-0.905,1.469-1.805,2.215-2.696
		c2.267-2.712,4.61-5.361,7.016-7.95c4.147-4.461,8.494-8.729,13.028-12.797c2.131-1.912,4.319-3.753,6.524-5.577
		c-1.243,1.078,3.944-2.982,5.476-4.046c5.122-3.56,10.409-6.877,15.843-9.94c3.207-1.808,6.462-3.532,9.764-5.16
		c1.427-0.703,2.869-1.371,4.306-2.052c0.303-0.144,1.911-0.837,3.046-1.332c1.571-0.571,5.318-1.988,6.242-2.314
		c3.09-1.088,6.203-2.101,9.342-3.041c6.457-1.933,12.991-3.42,19.566-4.874c31.398-6.947,62.133-20.549,87.885-39.878
		c55.294-41.503,89.409-101.278,97.217-169.952c3.392-29.84-3.53-59.122-1.299-88.926c0.115-1.538,1.141-9.602,0.777-7.735
		c0.451-2.738,0.934-5.47,1.494-8.189c1.47-7.148,3.353-14.211,5.6-21.154c1.199-3.703,2.56-7.341,3.915-10.989
		c0.309-0.831,0.507-1.395,0.631-1.77c0.192-0.331,0.497-0.895,0.963-1.805c3.26-6.362,6.391-12.718,10.098-18.844
		c3.291-5.439,6.828-10.777,10.659-15.863c0.138-0.077,2.96-3.512,3.874-4.569c2.486-2.875,5.057-5.675,7.699-8.407
		c4.902-5.069,10.06-9.891,15.457-14.431c1.133-0.953,4.845-3.754,4.689-3.684c2.502-1.796,5.022-3.565,7.599-5.256
		c5.908-3.877,12.014-7.455,18.292-10.7c2.907-1.503,5.874-2.869,8.82-4.293c0.093-0.045,0.534-0.237,1.049-0.461
		c1.244-0.447,5.662-2.169,5.526-2.119c6.202-2.248,12.519-4.194,18.913-5.82c3.217-0.819,6.457-1.557,9.71-2.215
		c1.723-0.348,10.082-1.564,8.998-1.533c14.122-1.436,28.213-1.31,42.352,0.042c0.985,0.094,1.625,0.146,2.033,0.17
		c0.336,0.098,1.037,0.266,2.359,0.54c3.509,0.728,7.033,1.349,10.527,2.16c7.115,1.652,14.083,3.862,21.203,5.496
		c34.205,7.85,69.03,8.14,103.422,1.384c64.781-12.726,122.923-55.029,156.609-111.537c3.686-6.183,7.043-12.569,10.051-19.109
		c2.515-5.468,5.677-11.273,7.248-16.975c0.003-0.012,0.006-0.021,0.009-0.032c1.137-2.703,2.109-5.501,3.201-8.197
		c0.376-0.929,0.605-1.522,0.738-1.889c0.187-0.343,0.452-0.847,0.823-1.57c1.476-2.876,2.809-5.822,4.317-8.684
		c3.45-6.548,7.259-12.913,11.405-19.044c1.293-1.912,2.634-3.791,3.991-5.658c-0.069,0.153,2.422-3.08,3.508-4.36
		c4.608-5.432,9.511-10.619,14.676-15.525c3.752-3.565,7.653-6.977,11.673-10.239c-0.406,0.398,4.085-2.968,5.577-3.992
		c2.872-1.97,5.79-3.873,8.76-5.693c5.07-3.108,10.281-5.994,15.604-8.645c0.675-0.336,4.602-2.166,6.438-3.046
		c1.699-0.654,5.682-2.254,6.748-2.638c12.122-4.372,24.515-7.258,37.163-9.597c0.365-0.068,0.668-0.126,0.936-0.179
		c0.325-0.017,0.723-0.041,1.223-0.076c3.447-0.242,6.877-0.61,10.331-0.787c6.419-0.329,12.854-0.362,19.276-0.084
		c2.972,0.129,5.942,0.322,8.906,0.582c1.4,0.122,2.823,0.356,4.228,0.429c6.217,1.292,12.464,2.236,18.632,3.818
		c6.358,1.631,12.635,3.579,18.8,5.833c0.835,0.305,4.275,1.692,5.792,2.278c1.737,0.838,5.681,2.687,6.745,3.221
		c6.057,3.045,11.958,6.403,17.674,10.048c2.681,1.71,5.295,3.51,7.916,5.31c1.245,0.855,2.459,1.757,3.678,2.65
		c0.185,0.152,0.378,0.313,0.586,0.489c2.499,2.12,5.022,4.202,7.46,6.393c1.632,1.466,3.19,3.079,4.86,4.505
		c0.612,0.523,7.621,7.8,6.293,5.776c1.171,1.056,2.394,2.068,3.597,3.078c4.742,3.981,9.66,7.78,14.605,11.503
		c12.763,9.61,26.436,17.767,41.036,24.267c65.602,29.204,138.295,28.63,203.464-1.542c16.339-7.565,31.04-17.485,45.177-28.563
		c1.75-1.371,3.537-2.734,5.248-4.166c-2.286,2.528,6.155-5.265,6.434-5.495c1.28-1.05,2.493-2.19,3.757-3.26
		c1.227-1.039,2.468-2.06,3.707-3.085c2.773-2.054,5.589-4.051,8.463-5.961c5.709-3.796,11.612-7.299,17.677-10.495
		c2.76-1.454,5.563-2.808,8.371-4.165c0.76-0.367,1.528-0.719,2.297-1.066c0.679-0.284,2-0.828,3.305-1.302
		c12.537-4.562,25.18-6.785,37.978-10.178c0.111-0.029,0.187-0.051,0.283-0.077c0.671-0.076,1.34-0.166,2.011-0.229
		c2.971-0.281,5.939-0.551,8.919-0.728c6.924-0.411,13.865-0.465,20.796-0.166c2.962,0.128,5.919,0.32,8.873,0.577
		c0.791,0.069,3.94,0.444,5.658,0.632c1.75,0.305,4.558,0.775,5.283,0.913c3.874,0.733,7.724,1.579,11.548,2.537
		c5.737,1.437,11.409,3.115,17.001,5.037c2.799,0.962,5.557,2.021,8.326,3.065c0.096,0.036,0.162,0.061,0.247,0.093
		c1.583,0.711,3.16,1.433,4.726,2.183c11.596,5.558,22.437,12.266,32.875,19.753c0.789,0.637,1.576,1.276,2.345,1.936
		c2.285,1.962,4.57,3.913,6.791,5.949c5.218,4.784,10.178,9.843,14.857,15.155c1.858,2.11,3.651,4.27,5.429,6.447
		c0.767,1.05,1.542,2.095,2.276,3.169c4.137,6.05,8.093,12.182,11.638,18.602c1.542,2.792,3.017,5.62,4.426,8.481
		c0.436,0.886,2.116,4.517,2.827,6.003c0.819,2.104,3.137,7.874,3.021,7.902c0.407-0.099,0.332-1.591,0.122-3.184
		c0.096,0.469,0.199,0.969,0.318,1.539c0.77,3.694,1.2,6.498,2.477,9.983c6.005,16.394,13.303,32.484,22.646,47.258
		c35.112,55.521,93.613,96.816,158.76,107.942c34.377,5.872,68.258,4.976,102.236-3.18c5.083-1.222,10.184-2.288,15.326-3.2
		c-1.071,0.24,6.441-0.848,6.879-0.887c2.322-0.208,4.65-0.374,6.977-0.503c5.747-0.32,11.509-0.379,17.261-0.204
		c3.408,0.104,6.814,0.301,10.212,0.582c1.216,0.101,7.117,0.87,6.631,0.739c10.022,1.67,19.917,4.092,29.569,7.264
		c2.089,0.687,4.168,1.408,6.233,2.163c0.554,0.202,6.588,2.711,6.104,2.427c4.622,2.118,9.167,4.401,13.619,6.859
		c4.287,2.367,8.49,4.881,12.595,7.55c2.736,1.778,5.367,3.692,8.067,5.521c0.419,0.284,0.771,0.523,1.09,0.74
		c9.135,7.267,17.627,15.387,25.368,24.119c1.802,2.033,3.539,4.116,5.276,6.203c0.337,0.406,0.578,0.686,0.752,0.879
		c0.183,0.263,0.379,0.544,0.601,0.861c3.132,4.47,6.234,8.919,9.087,13.575c2.856,4.661,5.524,9.439,7.993,14.316
		c0.991,1.959,1.889,3.961,2.876,5.92c0.521,1.173,0.891,1.998,1.115,2.485c0.343,0.872,0.697,1.74,1.024,2.618
		c3.775,10.545,7.003,21.129,9.161,32.135c0.423,2.159,0.803,4.324,1.156,6.495c0.118,0.869,0.266,1.996,0.301,2.468
		c0.505,6.94,1.015,13.836,0.994,20.8c-0.017,5.916-0.309,11.832-0.836,17.725c0.071-0.794-1.243,10.922-0.646,5.999
		c0.983-8.1-2.523,22.044-0.417,2.421c-1.628,15.169-3.73,29.871-3.204,45.188c1.844,53.689,21.641,104.068,55.38,145.606
		c31.881,39.249,77.001,66.293,125.698,78.928c5.358,1.39,10.676,2.819,15.937,4.549c2.045,0.672,13.416,5.106,10.938,3.926
		c9.601,4.268,18.859,9.323,27.659,15.057c2.16,1.408,4.296,2.852,6.4,4.343c-0.07-0.049,2.22,1.686,3.704,2.79
		c1.41,1.177,3.571,2.949,3.51,2.897c1.926,1.651,3.815,3.343,5.676,5.067c7.272,6.735,14.092,14.01,20.264,21.773
		c-1.688-2.008,5.152,7.476,6.034,8.831c2.717,4.171,5.282,8.444,7.688,12.802c2.409,4.365,4.5,8.849,6.724,13.304
		c0.156,0.313,0.293,0.588,0.421,0.843c1.311,3.274,2.557,6.572,3.701,9.908c3.062,8.929,5.503,18.067,7.311,27.331
		c0.477,2.443,0.868,4.897,1.3,7.348c0.03,0.167,0.056,0.31,0.083,0.461c-0.004,0.108-0.009,0.213-0.012,0.34
		c-0.141,5.404,0.937,11.003,1.066,16.443c0.119,5.014,0.052,10.034-0.204,15.042c-0.103,2.011-1.276,13.392-0.807,10.806
		c-1.578,10.359-4.02,20.603-7.229,30.573c-1.414,4.393-2.972,8.752-4.705,13.032c0.815-2.224-4.222,8.634-5.11,10.322
		c-5.114,9.718-11.095,18.799-17.516,27.689c-68.124,94.326-58.472,239.886,32.992,316.241c0.313,0.306,0.625,0.614,0.954,0.908
		c6.552,5.864,12.813,12.009,18.63,18.609c0.722,0.819,6.215,7.68,5.867,7.049c2.026,2.767,3.998,5.574,5.878,8.441
		c3.98,6.07,7.63,12.357,10.924,18.825c1.424,2.795,2.764,5.635,4.053,8.496c-0.199-0.202,2.698,7.124,3.076,8.218
		c2.632,7.614,4.802,15.386,6.5,23.261c0.634,2.94,1.098,5.905,1.702,8.849c0.128,0.834,0.229,1.484,0.307,1.967
		c0.122,1.103,0.257,2.204,0.361,3.308C3807.05,2262.034,3807.333,2270.004,3807.152,2277.964z"/>
	<path d="M3515.25,1303.134c-0.112,1.027-0.222,2.055-0.329,3.087C3515.327,1302.448,3516.336,1294.708,3515.25,1303.134z"/>
	<path d="M1194.077,2210.323c-0.006,0.034-0.01,0.06-0.017,0.093c-0.028,0.283-0.055,0.567-0.087,0.85
		c0.038-0.292,0.075-0.618,0.109-0.972C1194.081,2210.304,1194.079,2210.313,1194.077,2210.323z"/>
	<path d="M3449.112,1853.994c-5.211-18.082-25.63-31.181-44.284-25.144c-18.382,5.949-30.73,24.9-25.144,44.284
		c31.004,107.589,41.889,209.124,34.011,322.904c-0.73,10.546-1.635,21.08-2.714,31.596c-0.537,5.233-1.117,10.462-1.74,15.686
		c-0.311,2.606-0.65,5.208-0.965,7.814c-0.064,0.488-0.118,0.905-0.164,1.258c-0.1,0.717-0.197,1.434-0.299,2.151
		c-3.042,21.465-6.819,42.827-11.325,64.033c-8.885,41.819-20.611,83.033-35.073,123.265c-3.153,8.77-6.435,17.493-9.845,26.165
		c-1.856,4.72-3.751,9.426-5.683,14.116c-0.18,0.437-0.513,1.286-0.853,2.164c-1.083,2.65-2.289,5.264-3.434,7.882
		c-8.425,19.268-17.491,38.256-27.179,56.921c-19.263,37.115-40.982,72.953-64.956,107.214c-5.735,8.195-11.598,16.3-17.587,24.311
		c-1.497,2.002-3.001,3.998-4.513,5.987c-0.232,0.305-0.629,0.849-1.063,1.449c-3.23,4.422-6.812,8.643-10.246,12.901
		c-13.055,16.192-26.638,31.958-40.72,47.266c-28.154,30.604-58.303,59.372-90.193,86.059c-7.021,5.876-14.127,11.651-21.315,17.323
		c-1.663,1.313-3.31,2.683-5.01,3.957c-0.632,0.457-1.211,0.879-1.531,1.122c-4.644,3.529-9.319,7.015-14.027,10.458
		c-16.835,12.313-34.074,24.075-51.68,35.259c-35.381,22.475-72.248,42.611-110.286,60.219c-8.399,3.888-16.834,7.942-25.44,11.391
		c-1.141,0.439-2.462,0.953-3.047,1.194c-2.344,0.966-4.692,1.922-7.044,2.869c-5.494,2.212-11.01,4.372-16.544,6.48
		c-19.853,7.562-39.96,14.454-60.278,20.66c-41.15,12.571-83.159,22.321-125.637,29.178c-5.156,0.832-10.319,1.622-15.488,2.369
		c-2.132,0.308-4.27,0.638-6.41,0.911c-0.896,0.099-1.741,0.195-2.191,0.251c-10.446,1.304-20.913,2.437-31.396,3.396
		c-22.062,2.018-44.194,3.269-66.343,3.759c-44.364,0.982-88.796-1.074-132.873-6.211c-2.608-0.304-5.215-0.619-7.82-0.944
		c-0.576-0.072-1.802-0.209-2.955-0.335c-4.477-0.562-8.945-1.299-13.4-1.98c-11.153-1.706-22.276-3.611-33.361-5.714
		c-21.152-4.012-42.167-8.746-62.996-14.192c-41.144-10.758-81.559-24.299-120.88-40.497c-0.442-0.182-1.308-0.521-2.198-0.866
		c-1.856-0.77-3.691-1.612-5.529-2.41c-4.639-2.014-9.262-4.064-13.869-6.152c-9.196-4.168-18.326-8.483-27.384-12.943
		c-18.811-9.261-37.313-19.146-55.47-29.632c-35.021-20.226-71.072-42.147-102.261-68.114c-0.886-0.744-1.877-1.568-2.347-1.937
		c-1.965-1.542-3.923-3.092-5.876-4.65c-3.904-3.114-7.784-6.259-11.639-9.434c-8.349-6.876-16.582-13.895-24.693-21.05
		c-15.591-13.754-30.734-28.016-45.396-42.755c-14.663-14.74-28.847-29.957-42.52-45.62c-6.566-7.522-13.015-15.147-19.343-22.871
		c-3.165-3.863-6.3-7.751-9.404-11.664c-1.544-1.946-3.07-3.905-4.608-5.855c-0.674-0.881-1.349-1.761-2.021-2.645
		c-24.75-32.57-47.406-66.729-67.771-102.207c-10.44-18.187-20.277-36.719-29.49-55.557c-4.437-9.072-8.728-18.215-12.873-27.424
		c-2.076-4.613-4.115-9.243-6.117-13.889c-0.105-0.243-0.269-0.603-0.462-1.017c-1.392-2.942-2.506-6.067-3.729-9.08
		c-15.997-39.431-29.327-79.941-39.866-121.168c-5.337-20.875-9.959-41.932-13.859-63.122c-1.886-10.25-3.603-20.531-5.151-30.837
		c-0.388-2.585-0.766-5.172-1.133-7.761c-0.034-0.242-0.091-0.585-0.161-0.982c0.012,0.06,0.022,0.112,0.034,0.173
		c-1.167-5.96-1.533-12.213-2.203-18.247c-4.799-43.249-6.637-86.825-5.553-130.325c0.551-22.135,1.863-44.25,3.94-66.294
		c0.987-10.478,2.215-20.924,3.48-31.371c0.035-0.291,0.067-0.552,0.095-0.791c0.001-0.01,0.003-0.017,0.004-0.027
		c0.371-2.589,0.731-5.18,1.112-7.768c0.888-6.024,1.833-12.039,2.836-18.045c7.084-42.407,17.057-84.33,29.84-125.381
		c6.313-20.272,13.309-40.331,20.974-60.132c1.832-4.733,3.702-9.451,5.61-14.153c0.953-2.349,1.929-4.688,2.887-7.035
		c0.082-0.201,0.154-0.377,0.224-0.55c0.028-0.065,0.051-0.118,0.081-0.186c4.355-10.054,8.79-20.067,13.445-29.986
		c17.451-37.176,37.321-73.215,59.432-107.823c11.229-17.575,23.035-34.781,35.391-51.583c2.962-4.027,5.955-8.031,8.979-12.011
		c0.242-0.319,0.665-0.897,1.121-1.529c1.274-1.701,2.645-3.348,3.958-5.011c6.703-8.494,13.55-16.874,20.538-25.135
		c26.853-31.75,55.777-61.748,86.526-89.742c15.382-14.003,31.22-27.505,47.481-40.476c1.953-1.558,3.911-3.107,5.876-4.65
		c0.26-0.204,0.679-0.547,1.151-0.938c3.658-3.026,7.612-5.773,11.418-8.602c8.697-6.466,17.503-12.785,26.415-18.951
		c33.705-23.322,68.914-44.47,105.343-63.255c18.695-9.64,37.71-18.658,57.004-27.033c1.839-0.798,3.674-1.641,5.531-2.411
		c0.889-0.344,1.753-0.683,2.195-0.865c4.69-1.932,9.396-3.826,14.116-5.683c10.252-4.032,20.575-7.884,30.962-11.555
		c40.337-14.255,81.641-25.764,123.536-34.426c20.308-4.199,40.913-8.24,61.538-10.667c1.276-0.138,2.781-0.305,3.439-0.388
		c2.605-0.326,5.212-0.64,7.82-0.944c5.228-0.609,10.461-1.175,15.699-1.698c11.405-1.138,22.83-2.071,34.269-2.8
		c48.071-3.062,96.379-2.529,144.369,1.613c12.573,1.085,25.099,2.515,37.629,4c0.664,0.079,1.209,0.142,1.658,0.194
		c0.358,0.052,0.749,0.109,1.216,0.177c3.101,0.447,6.202,0.883,9.3,1.347c7.208,1.081,14.404,2.244,21.585,3.49
		c25.443,4.415,50.705,9.871,75.701,16.352c24.732,6.412,49.204,13.829,73.335,22.225c11.508,4.004,22.939,8.231,34.284,12.677
		c5.658,2.217,11.278,4.522,16.906,6.814c0.516,0.21,0.943,0.383,1.314,0.533c0.359,0.158,0.77,0.338,1.267,0.555
		c3.704,1.615,7.415,3.212,11.108,4.854c45.889,20.407,90.146,44.471,132.235,71.869c20.102,13.086,39.617,26.994,58.739,41.469
		c0.38,0.288,0.697,0.527,0.984,0.743c0.327,0.262,0.721,0.576,1.197,0.954c2.342,1.862,4.701,3.703,7.038,5.571
		c4.673,3.735,9.311,7.514,13.914,11.336c9.201,7.641,18.244,15.467,27.165,23.433c14.042,12.54,37.252,14.88,50.912,0
		c12.579-13.703,15-37.516,0-50.912c-77.38-69.102-164.945-126.743-260.001-168.469c-100.513-44.121-206.515-71.451-315.909-81.075
		c-96.073-8.453-193.428-2.207-287.85,17.317c-86.633,17.913-170.764,48.226-249.424,88.656
		c-77.631,39.901-149.845,90.718-214.297,149.547c-63.992,58.41-120.209,125.742-166.85,198.742
		c-47.423,74.225-84.71,155.347-110.668,239.506c-26.682,86.508-41.027,177.228-43.155,267.712
		c-2.144,91.152,8.444,183.115,31.27,271.394c22.12,85.549,56.217,168.505,100.406,245.018
		c43.339,75.041,96.963,144.71,158.316,205.903c61.357,61.198,131.155,114.661,206.316,157.805
		c76.649,43.998,159.702,77.902,245.333,99.794c88.378,22.594,180.394,32.959,271.578,30.562
		c90.87-2.389,181.926-17.076,268.7-44.227c83.638-26.169,164.218-63.497,237.953-110.881
		c72.88-46.834,140.066-103.195,198.312-167.343c58.672-64.617,109.313-136.942,149.016-214.694
		c40.236-78.797,70.346-163.005,88.029-249.72c20.055-98.346,25.731-199.761,15.425-299.633
		C3476.761,1970.761,3465.739,1911.691,3449.112,1853.994z"/>
</g>
</svg>
