<svg id="Layer_1" height="512" viewBox="0 0 512 512" width="512" xmlns="http://www.w3.org/2000/svg" xmlns:xlink="http://www.w3.org/1999/xlink" data-name="Layer 1"><linearGradient id="GradientFill_1" gradientUnits="userSpaceOnUse" x1="256" x2="256.001" y1="511.993" y2=".007"><stop offset="0" stop-color="#6c54a3"/><stop offset="1" stop-color="#00b1d2"/></linearGradient><path d="m146.5 328.2 3.368 12.578a29.47 29.47 0 0 0 36.062 20.826l13.425-3.6-74.255 106.037-8.409-25.087a14.949 14.949 0 0 0 -14.591-10.242l-26.462.688zm114.131-328.193h-1.889a29.332 29.332 0 0 0 -19.87 8.593l-22.383 22.383-30.563-8.2a29.488 29.488 0 0 0 -36.062 20.825l-8.2 30.563-30.563 8.2a29.488 29.488 0 0 0 -20.825 36.062l8.199 30.567-22.383 22.379a29.452 29.452 0 0 0 0 41.629l22.383 22.384-8.2 30.563a29.486 29.486 0 0 0 20.825 36.061l14.411 3.872-91.5 130.66a15.01 15.01 0 0 0 12.67 23.6l45.105-1.148 14.342 42.752a14.963 14.963 0 0 0 12.074 10.08 13.57 13.57 0 0 0 2.153.161 15.049 15.049 0 0 0 12.28-6.392l97.21-138.839 9.027 9.027a29.455 29.455 0 0 0 41.629 0l4.7-4.7 94.16 134.511a15.05 15.05 0 0 0 12.28 6.392 13.57 13.57 0 0 0 2.153-.161 14.962 14.962 0 0 0 12.074-10.08l14.343-42.751 45.111 1.146a14.993 14.993 0 0 0 12.669-23.6l-90.314-129.01 20.6-5.522a29.477 29.477 0 0 0 20.823-36.059l-8.2-30.563 22.384-22.384a29.468 29.468 0 0 0 0-41.629l-22.384-22.379 8.2-30.563a29.471 29.471 0 0 0 -20.826-36.062l-30.586-8.2-8.179-30.563a29.475 29.475 0 0 0 -36.061-20.825l-30.563 8.2-22.385-22.387a29.33 29.33 0 0 0 -19.869-8.593zm-140.711 214.399a29.125 29.125 0 0 1 7.606 28.432l-8.133 30.362 30.357 8.133a29.141 29.141 0 0 1 20.8 20.8l8.133 30.356 30.334-8.133a30.3 30.3 0 0 1 7.766-1.031 29.109 29.109 0 0 1 20.689 8.637l22.228 22.222 22.2-22.224a29.168 29.168 0 0 1 28.432-7.606l30.356 8.133 8.111-30.356a29.208 29.208 0 0 1 20.826-20.8l30.334-8.133-8.111-30.357a29.182 29.182 0 0 1 7.606-28.432l22.224-22.2-22.224-22.223a29.169 29.169 0 0 1 -7.606-28.432l8.111-30.357-30.334-8.11a29.24 29.24 0 0 1 -20.825-20.83l-8.113-30.357-30.356 8.133a29.1 29.1 0 0 1 -28.431-7.606l-22.2-22.227-22.225 22.227a29.139 29.139 0 0 1 -28.455 7.606l-30.334-8.133-8.133 30.357a29.173 29.173 0 0 1 -20.8 20.826l-30.357 8.11 8.133 30.357a29.1 29.1 0 0 1 -7.606 28.432l-22.223 22.223 22.224 22.2zm289.98 214.306a14.932 14.932 0 0 0 -14.6 10.242l-8.4 25.087-75.951-108.482 22.5 6.048a29.479 29.479 0 0 0 36.061-20.826l1.329-4.948 65.524 93.567-26.462-.688zm-150.2-314.612a78.091 78.091 0 1 1 -78.1 78.1 78.178 78.178 0 0 1 78.1-78.1zm0 186.172a108.081 108.081 0 1 1 108.07-108.07 108.2 108.2 0 0 1 -108.07 108.073z" fill="url(#GradientFill_1)" fill-rule="evenodd"/></svg>