<?xml version="1.0" encoding="utf-8"?>
<!-- Generator: Adobe Illustrator 27.5.0, SVG Export Plug-In . SVG Version: 6.00 Build 0)  -->
<svg version="1.1" id="Capa_1" xmlns="http://www.w3.org/2000/svg" xmlns:xlink="http://www.w3.org/1999/xlink" x="0px" y="0px"
	 viewBox="0 0 425.2 425.2" style="enable-background:new 0 0 425.2 425.2;" xml:space="preserve">
<rect x="0.002" y="0.002" style="fill:#7ED3F7;" width="0" height="80dvh"/>
<g>
	<path style="fill:#00AEDA;" d="M335.623,315.407l35.181,48.823H43.994l34.703-48.159c0,0,2.343-3.714,7.582-3.714h242.947
		C329.227,312.357,333.424,312.353,335.623,315.407z"/>
	<g>
		<g>
			<g>
				<g>
					<path style="fill:#00B6EA;" d="M319.063,292.336c0,3.677-2.98,6.656-6.656,6.656H102.942c-3.678,0-6.657-2.979-6.657-6.656
						v-133.27c0-3.677,2.979-6.658,6.657-6.658h209.464c3.676,0,6.656,2.981,6.656,6.658V292.336z"/>
					<rect x="104.317" y="160.616" style="fill:#5859A7;" width="206.708" height="130.169"/>
					<polygon style="fill:#D1D3D4;" points="104.317,160.616 104.317,290.785 311.025,290.785 					"/>
				</g>
				<path style="fill:#00B6EA;" d="M320.457,301.684l31.018,43.047H63.324l30.6-42.462c0,0,2.063-3.276,6.684-3.276h214.206
					C314.815,298.992,318.517,298.989,320.457,301.684z"/>
				<rect x="63.324" y="344.73" style="fill:#2578BD;" width="288.15" height="9.246"/>
				<polygon style="fill:#2578BD;" points="103.654,303.586 310.25,303.586 327.742,328.252 87.061,328.252 				"/>
				<polygon style="fill:#2578BD;" points="186.092,330.195 228.313,330.195 235.999,341.033 178.803,341.033 				"/>
			</g>
			<g>
				<rect x="147.186" y="188.361" style="fill:#BCBEC0;" width="133.108" height="83.818"/>
				<rect x="143.16" y="178.12" style="fill:#CBE9FA;" width="133.102" height="89.053"/>
				<rect x="143.16" y="178.12" style="fill:#00B6EA;" width="133.102" height="8.502"/>
				<g>
					<g>
						<g>
							<path style="fill:none;stroke:#00B6EA;stroke-miterlimit:10;" d="M183.557,217.582c-0.074-1.176-1.333-1.547-1.333-1.547
								l-3.894-1.323l-1.646-0.613c-1.267,0.849-2.656,1.162-3.109,1.25c-0.459-0.088-1.852-0.401-3.113-1.25l-1.65,0.613
								l-3.895,1.323c0,0-1.253,0.371-1.327,1.547l-1.229,6.698h11.06h0.306h11.059L183.557,217.582z"/>
							<path style="fill:none;stroke:#00B6EA;stroke-miterlimit:10;" d="M179.496,205.358c-0.075,4.02-2.789,7.227-6.061,7.165
								c-3.268-0.06-5.861-3.365-5.788-7.388c0.076-4.021,2.788-7.225,6.061-7.164C176.98,198.033,179.573,201.337,179.496,205.358z
								"/>
						</g>
						<path style="fill:none;stroke:#00B6EA;stroke-miterlimit:10;" d="M193.227,212.015c0,10.854-8.799,19.651-19.652,19.651
							c-10.854,0-19.652-8.798-19.652-19.651c0-10.855,8.798-19.653,19.652-19.653C184.428,192.361,193.227,201.16,193.227,212.015z
							"/>
					</g>
				</g>
				<g>
					<rect x="216.709" y="244.134" style="fill:#00B6EA;" width="37.943" height="14.243"/>
					<rect x="216.709" y="251.256" style="fill:#2391C9;" width="37.943" height="7.121"/>
					<g>
						<path style="fill:#FFFFFF;" d="M222.872,248.17h0.796l0.571,4.044l0.68-4.044h0.745l-1.143,5.469h-0.564L222.872,248.17z"/>
						<path style="fill:#FFFFFF;" d="M226.062,248.17h0.688v5.469h-0.688V248.17z"/>
						<path style="fill:#FFFFFF;" d="M227.652,248.17h1.997v0.688h-1.259v1.592h1.085v0.629h-1.085v1.881h1.259v0.68h-1.997V248.17z
							"/>
						<path style="fill:#FFFFFF;" d="M231.299,253.639h-0.63l-0.969-5.469h0.737l0.571,4.101l0.572-4.101h0.571l0.622,4.044
							l0.514-4.044h0.744l-0.969,5.469h-0.629l-0.572-4.043L231.299,253.639z"/>
						<path style="fill:#FFFFFF;" d="M236.087,248.17h0.622l0.803,3.986l0.681-3.986h0.687l0.507,5.469h-0.738l-0.174-3.762
							l-0.68,3.762h-0.514l-0.737-3.762l-0.174,3.762h-0.737L236.087,248.17z"/>
						<path style="fill:#FFFFFF;" d="M241.208,248.17c0.486,0.005,0.846,0.24,1.077,0.706c0.231,0.465,0.348,1.183,0.348,2.151
							c0,0.796-0.089,1.449-0.268,1.96c-0.179,0.512-0.525,0.768-1.042,0.768c-0.453,0-0.814-0.197-1.081-0.59
							c-0.268-0.394-0.401-1.086-0.401-2.08c0-0.858,0.093-1.558,0.278-2.098c0.186-0.54,0.549-0.81,1.089-0.81V248.17z
							 M241.208,248.857c-0.256,0.005-0.424,0.206-0.503,0.604c-0.079,0.398-0.119,0.882-0.119,1.451c0,0.824,0.064,1.4,0.191,1.729
							c0.128,0.328,0.291,0.492,0.488,0.492c0.227,0,0.388-0.185,0.484-0.554c0.097-0.369,0.145-0.925,0.145-1.667
							c0-0.743-0.058-1.27-0.173-1.581c-0.116-0.311-0.287-0.467-0.514-0.467V248.857z"/>
						<path style="fill:#FFFFFF;" d="M243.37,248.17h0.97c0.487,0.005,0.827,0.116,1.02,0.333c0.193,0.217,0.29,0.584,0.29,1.1
							c0,0.366-0.067,0.672-0.199,0.915c-0.133,0.243-0.313,0.395-0.539,0.452l1.02,2.669h-0.795l-1.027-2.792v2.792h-0.738V248.17z
							 M244.716,250.354c0.092-0.154,0.138-0.386,0.138-0.694c0-0.289-0.036-0.505-0.108-0.647
							c-0.072-0.142-0.234-0.213-0.485-0.213c-0.023,0-0.049,0-0.075,0c-0.027,0-0.052,0.002-0.076,0.007v1.815
							C244.422,250.599,244.624,250.509,244.716,250.354z"/>
						<path style="fill:#FFFFFF;" d="M246.387,248.17h1.997v0.688h-1.259v1.592h1.085v0.629h-1.085v1.881h1.259v0.68h-1.997V248.17z
							"/>
					</g>
				</g>
				<g>
					<path style="fill:#A1D5F3;" d="M268.738,199.611c0,1.109-0.897,2.009-2.008,2.009H204.63c-1.106,0-2.007-0.899-2.007-2.009l0,0
						c0-1.108,0.9-2.008,2.007-2.008h62.101C267.841,197.604,268.738,198.503,268.738,199.611L268.738,199.611z"/>
					<path style="fill:#A1D5F3;" d="M268.738,212.248c0,1.11-0.897,2.009-2.008,2.009H204.63c-1.106,0-2.007-0.898-2.007-2.009l0,0
						c0-1.109,0.9-2.009,2.007-2.009h62.101C267.841,210.239,268.738,211.139,268.738,212.248L268.738,212.248z"/>
					<path style="fill:#A1D5F3;" d="M268.738,224.886c0,1.109-0.897,2.01-2.008,2.01H204.63c-1.106,0-2.007-0.9-2.007-2.01l0,0
						c0-1.111,0.9-2.011,2.007-2.011h62.101C267.841,222.875,268.738,223.774,268.738,224.886L268.738,224.886z"/>
					<path style="fill:#A1D5F3;" d="M268.738,237.521c0,1.11-0.897,2.009-2.008,2.009H204.63c-1.106,0-2.007-0.898-2.007-2.009l0,0
						c0-1.11,0.9-2.009,2.007-2.009h62.101C267.841,235.513,268.738,236.411,268.738,237.521L268.738,237.521z"/>
				</g>
				<g>
					<path style="fill:#A1D5F3;" d="M194.842,240.824c0,0.712-0.578,1.291-1.291,1.291h-39.958c-0.711,0-1.288-0.579-1.288-1.291
						l0,0c0-0.714,0.577-1.294,1.288-1.294h39.958C194.264,239.53,194.842,240.11,194.842,240.824L194.842,240.824z"/>
					<path style="fill:#A1D5F3;" d="M194.842,248.954c0,0.712-0.578,1.292-1.291,1.292h-39.958c-0.711,0-1.288-0.58-1.288-1.292l0,0
						c0-0.714,0.577-1.292,1.288-1.292h39.958C194.264,247.662,194.842,248.24,194.842,248.954L194.842,248.954z"/>
					<path style="fill:#A1D5F3;" d="M194.842,257.085c0,0.712-0.578,1.292-1.291,1.292h-39.958c-0.711,0-1.288-0.58-1.288-1.292l0,0
						c0-0.715,0.577-1.293,1.288-1.293h39.958C194.264,255.792,194.842,256.37,194.842,257.085L194.842,257.085z"/>
				</g>
				<g>
					<path style="fill:#CBE9FA;" d="M259.642,182.369c0,1.363-1.1,2.467-2.464,2.467c-1.36,0-2.467-1.104-2.467-2.467
						c0-1.361,1.106-2.463,2.467-2.463C258.541,179.906,259.642,181.008,259.642,182.369z"/>
					<path style="fill:#CBE9FA;" d="M266.269,182.369c0,1.361-1.104,2.467-2.466,2.467c-1.361,0-2.463-1.106-2.463-2.467
						s1.102-2.465,2.463-2.465C265.164,179.904,266.269,181.008,266.269,182.369z"/>
					<path style="fill:#CBE9FA;" d="M272.892,182.369c0,1.361-1.1,2.465-2.461,2.465c-1.363,0-2.468-1.104-2.468-2.465
						s1.105-2.467,2.468-2.467C271.791,179.902,272.892,181.008,272.892,182.369z"/>
				</g>
			</g>
		</g>
		<g>
			<path style="fill:#6F4FA0;" d="M347.32,199.772l-6.188,3.385l-6.688-12.226c21.998-15.686,29.303-45.689,16.012-69.982
				c-14.342-26.218-47.227-35.847-73.443-21.505c-26.221,14.343-35.849,47.225-21.504,73.443
				c13.289,24.294,42.49,34.328,67.565,24.265l6.688,12.226l-6.188,3.384l34.988,63.963l23.744-12.99L347.32,199.772z
				 M266.495,166.876c-11.023-20.149-3.624-45.422,16.528-56.443c20.154-11.024,45.424-3.626,56.447,16.526
				c11.023,20.153,3.623,45.423-16.531,56.448C302.791,194.429,277.519,187.029,266.495,166.876z"/>
			<g>
				
					<rect x="316.375" y="190.286" transform="matrix(0.8773 -0.48 0.48 0.8773 -56.3339 179.5072)" style="fill:#2578BD;" width="12.962" height="19.255"/>
				<g>
					<path style="opacity:0.5;fill:#CBE9FA;" d="M257.381,166.876c11.023,20.153,36.295,27.553,56.444,16.531
						c20.153-11.025,27.555-36.295,16.532-56.448c-11.025-20.152-36.298-27.551-56.449-16.526
						C253.757,121.454,246.357,146.727,257.381,166.876z"/>
					<path style="opacity:0.5;fill:#CBE9FA;" d="M300.885,105.935c12.078,2.077,23.131,9.436,29.473,21.024
						c11.022,20.153,3.621,45.423-16.532,56.448c-8.614,4.71-18.167,6.048-27.138,4.469
						C291.82,160.642,296.074,133.233,300.885,105.935z"/>
					<path style="fill:#00B6EA;" d="M246.395,172.888c14.341,26.22,47.22,35.847,73.441,21.505
						c26.219-14.341,35.848-47.224,21.504-73.443c-14.339-26.218-47.223-35.847-73.442-21.505
						C241.678,113.787,232.051,146.668,246.395,172.888z M257.381,166.876c-11.024-20.149-3.624-45.422,16.527-56.443
						c20.151-11.024,45.425-3.626,56.449,16.526c11.022,20.153,3.621,45.423-16.532,56.448
						C293.676,194.429,268.404,187.029,257.381,166.876z"/>
				</g>
				<path style="opacity:0.3;fill:#007CB2;" d="M246.395,172.888c14.341,26.22,47.22,35.847,73.441,21.505
					c26.219-14.341,35.848-47.224,21.504-73.443c-14.339-26.218-47.223-35.847-73.442-21.505
					C241.678,113.787,232.051,146.668,246.395,172.888z M251.566,170.059c-12.779-23.363-4.202-52.662,19.163-65.441
					c23.361-12.779,52.662-4.201,65.441,19.162c12.779,23.364,4.199,52.663-19.163,65.443
					C293.644,202.003,264.344,193.422,251.566,170.059z"/>
				
					<rect x="330.294" y="201.795" transform="matrix(0.8773 -0.48 0.48 0.8773 -72.1597 194.2663)" style="fill:#5859A7;" width="27.064" height="72.906"/>
				<polygon style="fill:#5B51A2;" points="360.949,262.177 329.436,204.568 338.204,199.772 373.191,263.734 349.448,276.725 
					345.973,270.368 				"/>
				<g>
					<path style="fill:none;stroke:#FFFFFF;stroke-width:3;stroke-miterlimit:10;" d="M268.42,168.009
						c1.496,2.016,3.18,3.833,5.014,5.437"/>
					<path style="fill:none;stroke:#FFFFFF;stroke-width:3;stroke-miterlimit:10;" d="M279.63,116.837
						c-16.821,9.201-22.999,30.3-13.796,47.126"/>
				</g>
			</g>
		</g>
		<g>
			<path style="fill:#5859A7;" d="M42.894,121.918c0,10.772,8.733,19.506,19.505,19.506h77.371c10.771,0,19.505-8.733,19.505-19.506
				V80.475c0-10.772-8.733-19.505-19.505-19.505H62.398c-10.771,0-19.505,8.732-19.505,19.505V121.918z"/>
			<path style="opacity:0.3;fill:#FFFFFF;" d="M97.652,80.556c0.854,6.731-2.401,14.456-7.205,18.395
				c-6.366,5.219-15.995,6.57-23.908,4.966c-9.592-1.943-17.033-7.852-16.936-17.968c0.164-16.716,14.211-17.337,27.511-17.529
				c6.402-0.093,14.933,0.465,18.652,6.565C96.795,76.675,97.404,78.571,97.652,80.556z"/>
			<path style="fill:#D1D3D4;" d="M107.008,128.6c14.276-4.636,25.809-14.973,29.191-30.026c1.844-8.205,1.73-16.913-1.536-24.76
				c-1.896-4.554-4.439-8.742-7.13-12.844h12.236c10.771,0,19.505,8.732,19.505,19.505v41.443c0,10.772-8.733,19.506-19.505,19.506
				H62.398c-10.771,0-19.505-8.733-19.505-19.506V111.4C56.716,130.633,85.406,135.613,107.008,128.6z"/>
			<polygon style="fill:#5859A7;" points="139.77,141.424 143.443,158.533 117.69,141.424 			"/>
			<polygon style="fill:#D1D3D4;" points="139.77,141.424 143.443,158.533 117.69,141.424 			"/>
			<g>
				<path style="fill:#FFFFFF;" d="M118.653,101.196c0,2.564,2.076,4.643,4.641,4.643c2.563,0,4.644-2.078,4.644-4.643
					c0-2.563-2.08-4.642-4.644-4.642C120.729,96.555,118.653,98.633,118.653,101.196z"/>
				<path style="fill:#FFFFFF;" d="M96.442,101.196c0,2.564,2.079,4.643,4.641,4.643c2.565,0,4.644-2.078,4.644-4.643
					c0-2.563-2.078-4.642-4.644-4.642C98.521,96.555,96.442,98.633,96.442,101.196z"/>
				<path style="fill:#FFFFFF;" d="M74.232,101.196c0,2.564,2.076,4.643,4.641,4.643c2.565,0,4.644-2.078,4.644-4.643
					c0-2.563-2.078-4.642-4.644-4.642C76.309,96.555,74.232,98.633,74.232,101.196z"/>
			</g>
		</g>
	</g>
</g>
</svg>
